<?xml version="1.0" encoding="utf-8"?>
<!-- Generator: Adobe Illustrator 15.0.0, SVG Export Plug-In . SVG Version: 6.00 Build 0)  -->
<!DOCTYPE svg PUBLIC "-//W3C//DTD SVG 1.1//EN" "http://www.w3.org/Graphics/SVG/1.1/DTD/svg11.dtd">
<svg version="1.1" id="Layer_1" xmlns="http://www.w3.org/2000/svg" xmlns:xlink="http://www.w3.org/1999/xlink" x="0px" y="0px"
	 width="612px" height="792px" viewBox="0 0 612 792" enable-background="new 0 0 612 792" xml:space="preserve">
<polygon fill="#FFFFFF" stroke="#333333" stroke-width="3" stroke-miterlimit="10" points="56.062,643.767 561.751,643.767 
	561.751,183.197 417.927,183.197 417.927,166.338 56.062,166.338 "/>
<rect x="58.352" y="606.378" opacity="0.7" fill="#FFE4B8" stroke="#A37B40" stroke-width="2" stroke-miterlimit="10" width="32.913" height="36.433"/>
<text transform="matrix(1 0 0 1 61.1758 616.8975)" fill="#666666" font-family="'HelveticaNeue-Light'" font-size="8">ESCAL-</text>
<text transform="matrix(1 0 0 1 61.104 623.8975)" fill="#666666" font-family="'HelveticaNeue-Light'" font-size="8">A</text>
<text transform="matrix(1 0 0 1 65.8481 623.8975)" fill="#666666" font-family="'HelveticaNeue-Light'" font-size="8">T</text>
<text transform="matrix(1 0 0 1 70.5908 623.8975)" fill="#666666" font-family="'HelveticaNeue-Light'" font-size="8">ORS </text>
<text transform="matrix(1 0 0 1 69.0322 630.8975)" fill="#666666" font-family="'HelveticaNeue-Light'" font-size="8">T</text>
<text transform="matrix(1 0 0 1 73.7754 630.8975)" fill="#666666" font-family="'HelveticaNeue-Light'" font-size="8">O </text>
<text transform="matrix(1 0 0 1 61.1816 637.8975)" fill="#666666" font-family="'HelveticaNeue-Light'" font-size="8">METRO</text>
<path opacity="0.7" fill="#B3C5CF" d="M555.28,394.854c0,95.148-78.163,172.994-173.694,172.994H236.351
	c-95.532,0-173.694-77.846-173.694-172.994v-9.886c0-95.146,78.162-172.994,173.694-172.994h145.235
	c95.531,0,173.694,77.848,173.694,172.994V394.854z"/>
<polygon fill="#9FC2FF" stroke="#396099" stroke-width="2" stroke-miterlimit="10" points="489.489,350.819 486.995,332.224 
	479.118,311.32 512.587,302.2 526.173,346.804 "/>
<polygon fill="#9FC2FF" stroke="#396099" stroke-width="2" stroke-miterlimit="10" points="125.122,351.46 127.616,332.865 
	135.493,311.961 102.024,302.841 88.438,347.445 "/>
<polygon fill="#9FC2FF" stroke="#396099" stroke-width="2" stroke-miterlimit="10" points="489.489,427.495 486.995,446.09 
	479.118,466.994 512.587,476.113 526.173,431.51 "/>
<polygon fill="#9FC2FF" stroke="#396099" stroke-width="2" stroke-miterlimit="10" points="125.122,426.854 127.616,445.449 
	135.493,466.353 102.024,475.473 88.438,430.869 "/>
<rect x="156.57" y="569.578" fill="#9FC2FF" stroke="#396099" stroke-width="2" stroke-miterlimit="10" width="35.715" height="32.899"/>
<rect x="366.609" y="165.833" fill="#9FC2FF" stroke="#396099" stroke-width="2" stroke-miterlimit="10" width="33.819" height="40.998"/>
<polygon fill="#9FC2FF" stroke="#396099" stroke-width="2" stroke-miterlimit="10" points="248.48,207.222 211.909,207.222 
	211.909,168.558 244.976,168.558 244.976,200.492 248.48,200.883 "/>
<rect x="263.783" y="238.052" fill="#FFE4B8" stroke="#A37B40" stroke-width="2" stroke-miterlimit="10" width="18.824" height="35.446"/>
<rect x="263.783" y="273.848" fill="#FFE4B8" stroke="#A37B40" stroke-width="2" stroke-miterlimit="10" width="18.824" height="9.323"/>
<rect x="288.535" y="238.052" fill="#FFE4B8" stroke="#A37B40" stroke-width="2" stroke-miterlimit="10" width="18.824" height="35.446"/>
<rect x="288.535" y="273.848" fill="#FFE4B8" stroke="#A37B40" stroke-width="2" stroke-miterlimit="10" width="18.824" height="9.323"/>
<rect x="307.248" y="238.052" fill="#FFE4B8" stroke="#A37B40" stroke-width="2" stroke-miterlimit="10" width="18.824" height="35.446"/>
<rect x="351.021" y="238.052" fill="#FFE4B8" stroke="#A37B40" stroke-width="2" stroke-miterlimit="10" width="18.824" height="35.446"/>
<rect x="307.248" y="273.848" fill="#FFE4B8" stroke="#A37B40" stroke-width="2" stroke-miterlimit="10" width="18.824" height="9.323"/>
<rect x="332.789" y="238.052" fill="#FFE4B8" stroke="#A37B40" stroke-width="2" stroke-miterlimit="10" width="18.824" height="35.446"/>
<rect x="332.789" y="273.848" fill="#FFE4B8" stroke="#A37B40" stroke-width="2" stroke-miterlimit="10" width="18.824" height="9.323"/>
<rect x="351.329" y="273.848" fill="#FFE4B8" stroke="#A37B40" stroke-width="2" stroke-miterlimit="10" width="18.824" height="9.323"/>
<polygon fill="#FFE4B8" stroke="#A37B40" stroke-width="2" stroke-miterlimit="10" points="398.984,273.498 381.772,273.498 
	382.287,245.198 402.689,248.652 "/>
<polygon fill="#FFE4B8" stroke="#A37B40" stroke-width="2" stroke-miterlimit="10" points="398.292,283.08 381.772,283.171 
	381.772,273.848 398.984,273.498 "/>
<polygon fill="#FFE4B8" stroke="#A37B40" stroke-width="2" stroke-miterlimit="10" points="400.324,273.58 417.074,279.022 
	428.169,251.976 402.866,248.588 "/>
<polygon fill="#FFE4B8" stroke="#A37B40" stroke-width="2" stroke-miterlimit="10" points="398.631,283.036 414.616,287.202 
	417.074,279.022 400.324,273.58 "/>
<polygon fill="#FFE4B8" stroke="#A37B40" stroke-width="2" stroke-miterlimit="10" points="217.081,273.434 234.292,273.434 
	233.778,245.134 213.375,248.587 "/>
<polygon fill="#FFE4B8" stroke="#A37B40" stroke-width="2" stroke-miterlimit="10" points="217.773,283.016 234.292,283.106 
	234.292,273.784 217.081,273.434 "/>
<polygon fill="#FFE4B8" stroke="#A37B40" stroke-width="2" stroke-miterlimit="10" points="215.741,273.515 198.991,278.958 
	187.896,251.912 213.199,248.523 "/>
<polygon fill="#FFE4B8" stroke="#A37B40" stroke-width="2" stroke-miterlimit="10" points="217.434,282.972 201.449,287.137 
	198.991,278.958 215.741,273.515 "/>
<polygon fill="#FFE4B8" stroke="#A37B40" stroke-width="2" stroke-miterlimit="10" points="167.933,292.243 182.987,283.898 
	171.873,257.387 152.647,272.308 "/>
<polygon fill="#FFE4B8" stroke="#A37B40" stroke-width="2" stroke-miterlimit="10" points="173.184,300.288 186.39,293.062 
	183.157,284.205 167.933,292.243 "/>
<polygon fill="#FFE4B8" stroke="#A37B40" stroke-width="2" stroke-miterlimit="10" points="166.801,292.964 154.304,306.217 
	130.952,288.298 152.461,272.338 "/>
<polygon fill="#FFE4B8" stroke="#A37B40" stroke-width="2" stroke-miterlimit="10" points="172.866,300.414 161.852,311.726 
	154.304,306.217 166.801,292.964 "/>
<rect x="307.641" y="504.726" fill="#FFE4B8" stroke="#A37B40" stroke-width="2" stroke-miterlimit="10" width="18.824" height="35.445"/>
<polygon fill="#FFE4B8" stroke="#A37B40" stroke-width="2" stroke-miterlimit="10" points="485.43,358.44 485.43,385.885 
	520.876,385.885 527.265,352.923 "/>
<polygon fill="#FFE4B8" stroke="#A37B40" stroke-width="2" stroke-miterlimit="10" points="485.43,419.952 485.43,392.508 
	520.876,392.508 527.265,425.47 "/>
<rect x="307.641" y="495.053" fill="#FFE4B8" stroke="#A37B40" stroke-width="2" stroke-miterlimit="10" width="18.824" height="9.323"/>
<rect x="332.77" y="504.726" fill="#FFE4B8" stroke="#A37B40" stroke-width="2" stroke-miterlimit="10" width="36.752" height="35.445"/>
<rect x="332.77" y="495.053" fill="#FFE4B8" stroke="#A37B40" stroke-width="2" stroke-miterlimit="10" width="36.752" height="9.323"/>
<rect x="289.141" y="504.726" fill="#FFE4B8" stroke="#A37B40" stroke-width="2" stroke-miterlimit="10" width="18.824" height="35.445"/>
<rect x="289.141" y="495.053" fill="#FFE4B8" stroke="#A37B40" stroke-width="2" stroke-miterlimit="10" width="18.824" height="9.323"/>
<rect x="264.211" y="504.726" fill="#FFE4B8" stroke="#A37B40" stroke-width="2" stroke-miterlimit="10" width="18.824" height="35.445"/>
<rect x="264.211" y="495.053" fill="#FFE4B8" stroke="#A37B40" stroke-width="2" stroke-miterlimit="10" width="18.824" height="9.323"/>
<rect x="245.711" y="504.726" fill="#FFE4B8" stroke="#A37B40" stroke-width="2" stroke-miterlimit="10" width="18.824" height="35.445"/>
<rect x="245.711" y="495.053" fill="#FFE4B8" stroke="#A37B40" stroke-width="2" stroke-miterlimit="10" width="18.824" height="9.323"/>
<rect x="245.548" y="238.052" fill="#FFE4B8" stroke="#A37B40" stroke-width="2" stroke-miterlimit="10" width="18.824" height="35.446"/>
<rect x="245.548" y="273.848" fill="#FFE4B8" stroke="#A37B40" stroke-width="2" stroke-miterlimit="10" width="18.824" height="9.323"/>
<polygon fill="#FFE4B8" stroke="#A37B40" stroke-width="2" stroke-miterlimit="10" points="447.695,292.875 432.643,284.53 
	443.756,258.019 462.982,272.94 "/>
<polygon fill="#FFE4B8" stroke="#A37B40" stroke-width="2" stroke-miterlimit="10" points="442.445,300.92 429.239,293.694 
	432.473,284.836 447.695,292.875 "/>
<polygon fill="#FFE4B8" stroke="#A37B40" stroke-width="2" stroke-miterlimit="10" points="448.828,293.596 461.325,306.849 
	484.677,288.93 463.168,272.97 "/>
<polygon fill="#FFE4B8" stroke="#A37B40" stroke-width="2" stroke-miterlimit="10" points="442.763,301.045 453.777,312.357 
	461.325,306.849 448.828,293.596 "/>
<polygon fill="#FFE4B8" stroke="#A37B40" stroke-width="2" stroke-miterlimit="10" points="398.993,504.05 381.781,504.05 
	382.296,532.35 402.698,528.896 "/>
<polygon fill="#FFE4B8" stroke="#A37B40" stroke-width="2" stroke-miterlimit="10" points="398.301,494.468 381.781,494.377 
	381.781,503.699 398.993,504.05 "/>
<polygon fill="#FFE4B8" stroke="#A37B40" stroke-width="2" stroke-miterlimit="10" points="400.333,503.969 417.083,498.525 
	428.178,525.572 402.875,528.96 "/>
<polygon fill="#FFE4B8" stroke="#A37B40" stroke-width="2" stroke-miterlimit="10" points="398.64,494.512 414.625,490.346 
	417.083,498.525 400.333,503.969 "/>
<polygon fill="#FFE4B8" stroke="#A37B40" stroke-width="2" stroke-miterlimit="10" points="447.704,484.674 432.651,493.018 
	443.765,519.529 462.991,504.607 "/>
<polygon fill="#FFE4B8" stroke="#A37B40" stroke-width="2" stroke-miterlimit="10" points="442.454,476.628 429.248,483.854 
	432.481,492.711 447.704,484.674 "/>
<polygon fill="#FFE4B8" stroke="#A37B40" stroke-width="2" stroke-miterlimit="10" points="448.837,483.952 461.334,470.699 
	484.686,488.618 463.177,504.578 "/>
<polygon fill="#FFE4B8" stroke="#A37B40" stroke-width="2" stroke-miterlimit="10" points="442.771,476.502 453.786,465.19 
	461.334,470.699 448.837,483.952 "/>
<polygon fill="#FFE4B8" stroke="#A37B40" stroke-width="2" stroke-miterlimit="10" points="216.307,504.396 233.519,504.396 
	233.003,532.695 212.602,529.242 "/>
<polygon fill="#FFE4B8" stroke="#A37B40" stroke-width="2" stroke-miterlimit="10" points="216.999,494.813 233.519,494.723 
	233.519,504.045 216.307,504.396 "/>
<polygon fill="#FFE4B8" stroke="#A37B40" stroke-width="2" stroke-miterlimit="10" points="214.967,504.314 198.217,498.871 
	187.122,525.918 212.425,529.306 "/>
<polygon fill="#FFE4B8" stroke="#A37B40" stroke-width="2" stroke-miterlimit="10" points="216.66,494.857 200.675,490.691 
	198.217,498.871 214.967,504.314 "/>
<polygon fill="#FFE4B8" stroke="#A37B40" stroke-width="2" stroke-miterlimit="10" points="167.596,485.02 182.648,493.363 
	171.535,519.875 152.309,504.953 "/>
<polygon fill="#FFE4B8" stroke="#A37B40" stroke-width="2" stroke-miterlimit="10" points="172.846,476.974 186.052,484.199 
	182.818,493.057 167.596,485.02 "/>
<polygon fill="#FFE4B8" stroke="#A37B40" stroke-width="2" stroke-miterlimit="10" points="166.463,484.298 153.966,471.045 
	130.615,488.964 152.123,504.924 "/>
<polygon fill="#FFE4B8" stroke="#A37B40" stroke-width="2" stroke-miterlimit="10" points="172.528,476.848 161.514,465.536 
	153.966,471.045 166.463,484.298 "/>
<polygon fill="#FFE4B8" stroke="#A37B40" stroke-width="2" stroke-miterlimit="10" points="128.247,357.31 128.247,384.754 
	92.801,384.754 86.412,351.792 "/>
<polygon fill="#FFE4B8" stroke="#A37B40" stroke-width="2" stroke-miterlimit="10" points="128.247,418.821 128.247,391.377 
	92.801,391.377 86.412,424.339 "/>
<rect x="119.58" y="167.792" opacity="0.5" fill="#E2E2E2" stroke="#686868" stroke-width="2" stroke-miterlimit="10" width="13.548" height="41.323"/>
<polygon opacity="0.5" fill="#E2E2E2" stroke="#686868" stroke-width="2" stroke-miterlimit="10" points="108.079,245.521 
	65.747,245.521 65.747,179.124 108.079,179.124 108.079,184.735 118.403,184.551 118.331,224.474 128.826,223.474 129.326,236.091 
	118.792,245.521 "/>
<rect x="69.525" y="255.359" opacity="0.5" fill="#E2E2E2" stroke="#686868" stroke-width="2" stroke-miterlimit="10" width="19.711" height="8.351"/>
<rect x="56.062" y="319.946" opacity="0.5" fill="#E2E2E2" stroke="#686868" stroke-width="2" stroke-miterlimit="10" width="14.043" height="8.351"/>
<rect x="58.268" y="285.955" opacity="0.5" fill="#E2E2E2" stroke="#686868" stroke-width="2" stroke-miterlimit="10" width="17.686" height="19.301"/>
<polygon opacity="0.5" fill="#E2E2E2" stroke="#686868" stroke-width="2" stroke-miterlimit="10" points="85.605,278.189 
	80.743,286.348 56.062,286.348 56.062,264.355 88.917,263.71 92.31,266.311 "/>
<rect x="58.648" y="578.229" opacity="0.5" fill="#E2E2E2" stroke="#686868" stroke-width="2" stroke-miterlimit="10" width="31.481" height="28.413"/>
<rect x="99.216" y="562.934" opacity="0.5" fill="#E2E2E2" stroke="#686868" stroke-width="2" stroke-miterlimit="10" width="11.749" height="13.928"/>
<rect x="118.209" y="562.934" opacity="0.5" fill="#E2E2E2" stroke="#686868" stroke-width="2" stroke-miterlimit="10" width="8.905" height="13.928"/>
<rect x="111.646" y="562.934" opacity="0.5" fill="#E2E2E2" stroke="#686868" stroke-width="2" stroke-miterlimit="10" width="5.7" height="13.928"/>
<rect x="90.731" y="578.681" opacity="0.5" fill="#E2E2E2" stroke="#686868" stroke-width="2" stroke-miterlimit="10" width="19.994" height="12.821"/>
<rect x="479.427" y="561.631" fill="#FFE4B8" stroke="#A37B40" stroke-width="2" stroke-miterlimit="10" width="13.731" height="18.299"/>
<polygon opacity="0.5" fill="#E2E2E2" stroke="#686868" stroke-width="2" stroke-miterlimit="10" points="561.751,644.778 
	466.767,644.778 466.767,616.831 466.767,611.608 466.767,573.186 479.148,573.186 479.148,579.93 502.683,579.93 502.683,583.878 
	511.988,583.878 511.988,577.483 561.751,577.483 561.751,597.831 561.751,604.831 "/>
<polygon opacity="0.5" fill="#E2E2E2" stroke="#686868" stroke-width="2" stroke-miterlimit="10" points="193.428,644.778 
	91.305,644.778 91.305,578.539 126.972,577.594 127.472,555.592 156.5,556.328 156.5,568.911 156.5,603.076 183.52,603.076 
	193.428,603.076 "/>
<polygon opacity="0.5" fill="#E2E2E2" stroke="#686868" stroke-width="2" stroke-miterlimit="10" points="247.832,644.778 
	193.466,644.778 193.918,589.193 211.745,589.149 211.521,603.032 242.558,603.076 247.832,603.076 "/>
<rect x="69.525" y="245.923" fill="#FFE4B8" stroke="#A37B40" stroke-width="2" stroke-miterlimit="10" width="21.617" height="8.351"/>
<rect x="158.69" y="209.866" fill="#FFE4B8" stroke="#A37B40" stroke-width="2" stroke-miterlimit="10" width="17.141" height="7.151"/>
<rect x="119.245" y="209.866" opacity="0.5" fill="#E2E2E2" stroke="#686868" stroke-width="2" stroke-miterlimit="10" width="17.141" height="7.151"/>
<rect x="176.554" y="167.792" fill="#FFE4B8" stroke="#A37B40" stroke-width="2" stroke-miterlimit="10" width="17.013" height="38.56"/>
<rect x="263.731" y="184.232" fill="#FFE4B8" stroke="#A37B40" stroke-width="2" stroke-miterlimit="10" width="27.089" height="13.649"/>
<rect x="263.731" y="198.139" fill="#FFE4B8" stroke="#A37B40" stroke-width="2" stroke-miterlimit="10" width="27.089" height="13.649"/>
<rect x="323.787" y="184.232" fill="#FFE4B8" stroke="#A37B40" stroke-width="2" stroke-miterlimit="10" width="27.09" height="13.649"/>
<rect x="421.397" y="199.117" fill="#FFE4B8" stroke="#A37B40" stroke-width="2" stroke-miterlimit="10" width="22.453" height="16.954"/>
<rect x="323.787" y="198.139" fill="#FFE4B8" stroke="#A37B40" stroke-width="2" stroke-miterlimit="10" width="27.09" height="13.649"/>
<rect x="193.561" y="167.195" opacity="0.5" fill="#E2E2E2" stroke="#686868" stroke-width="2" stroke-miterlimit="10" width="17.013" height="27.287"/>
<rect x="193.561" y="194.482" opacity="0.5" fill="#E2E2E2" stroke="#686868" stroke-width="2" stroke-miterlimit="10" width="17.013" height="12.349"/>
<polygon fill="#FFE4B8" stroke="#A37B40" stroke-width="2" stroke-miterlimit="10" points="493.984,226.527 455.498,226.527 
	455.498,199.325 471.636,199.325 471.636,186.473 493.984,186.473 "/>
<g>
	<g opacity="0.7">
		<polygon fill="#FFE4B8" points="535.77,223.912 515.992,223.874 515.908,255.746 535.685,255.784 		"/>
		<path fill="#A37B40" d="M536.009,256.063l-20.426-0.04l0.087-32.429l20.426,0.04L536.009,256.063z M516.233,255.468l19.129,0.037
			l0.083-31.315l-19.129-0.038L516.233,255.468z"/>
	</g>
	<g opacity="0.7">
		
			<rect x="516.039" y="253.422" transform="matrix(1 0.0019 -0.0019 1 0.4902 -1.0124)" fill="#FFE4B8" width="19.776" height="1.267"/>
		<path fill="#A37B40" d="M536.137,254.988l-20.425-0.04l0.004-1.824l20.427,0.04L536.137,254.988z M516.362,254.392l19.127,0.038
			l0.002-0.71l-19.128-0.037L516.362,254.392z"/>
	</g>
	<g opacity="0.7">
		
			<rect x="516.001" y="250.981" transform="matrix(1 0.002 -0.002 1 0.4918 -1.0253)" fill="#FFE4B8" width="19.776" height="1.267"/>
		<path fill="#A37B40" d="M536.099,252.546l-20.425-0.039l0.006-1.824l20.425,0.04L536.099,252.546z M516.324,251.951l19.128,0.037
			l0.003-0.709l-19.128-0.037L516.324,251.951z"/>
	</g>
	<g opacity="0.7">
		
			<rect x="515.963" y="248.545" transform="matrix(1 0.002 -0.002 1 0.487 -1.0252)" fill="#FFE4B8" width="19.777" height="1.267"/>
		<path fill="#A37B40" d="M536.062,250.11l-20.427-0.04l0.007-1.824l20.425,0.039L536.062,250.11z M516.287,249.515l19.127,0.037
			l0.002-0.71l-19.128-0.037L516.287,249.515z"/>
	</g>
	<g opacity="0.7">
		
			<rect x="515.937" y="246.016" transform="matrix(1 0.0019 -0.0019 1 0.476 -1.0122)" fill="#FFE4B8" width="19.776" height="1.268"/>
		<path fill="#A37B40" d="M536.036,247.582l-20.426-0.039l0.005-1.825l20.425,0.039L536.036,247.582z M516.26,246.987l19.13,0.037
			v-0.71l-19.126-0.037L516.26,246.987z"/>
	</g>
	<g opacity="0.7">
		
			<rect x="516.093" y="243.302" transform="matrix(1 0.0019 -0.0019 1 0.4707 -1.0124)" fill="#FFE4B8" width="19.777" height="1.267"/>
		<path fill="#A37B40" d="M536.191,244.868l-20.426-0.041l0.005-1.824l20.427,0.039L536.191,244.868z M516.417,244.272l19.127,0.038
			l0.002-0.71l-19.128-0.038L516.417,244.272z"/>
	</g>
	<g opacity="0.7">
		
			<rect x="515.938" y="240.664" transform="matrix(1 0.002 -0.002 1 0.4716 -1.0252)" fill="#FFE4B8" width="19.776" height="1.267"/>
		<path fill="#A37B40" d="M536.039,242.23l-20.428-0.04l0.006-1.825l20.425,0.04L536.039,242.23z M516.264,241.634l19.127,0.038
			l0.001-0.71l-19.127-0.037L516.264,241.634z"/>
	</g>
	<g opacity="0.7">
		
			<rect x="516.026" y="238.229" transform="matrix(1 0.002 -0.002 1 0.4728 -1.0383)" fill="#FFE4B8" width="19.777" height="1.268"/>
		<path fill="#A37B40" d="M536.125,239.795l-20.426-0.041l0.006-1.824l20.425,0.04L536.125,239.795z M516.35,239.199l19.128,0.038
			l0.002-0.711l-19.128-0.038L516.35,239.199z"/>
	</g>
</g>
<g>
	<g opacity="0.7">
		<polygon fill="#FFE4B8" points="536.202,255.718 555.979,255.757 556.063,223.885 536.287,223.847 		"/>
		<path fill="#A37B40" d="M556.304,256.037l-20.428-0.041l0.088-32.428l20.425,0.04L556.304,256.037z M536.526,255.44l19.129,0.038
			l0.083-31.314l-19.127-0.037L536.526,255.44z"/>
	</g>
	<g opacity="0.7">
		
			<rect x="536.156" y="224.94" transform="matrix(-1 -0.002 0.002 -1 1091.6479 452.2125)" fill="#FFE4B8" width="19.777" height="1.268"/>
		<path fill="#A37B40" d="M556.256,226.506l-20.426-0.04l0.005-1.824l20.427,0.039L556.256,226.506z M536.48,225.911l19.128,0.037
			l0.001-0.71l-19.127-0.037L536.48,225.911z"/>
	</g>
	<g opacity="0.7">
		
			<rect x="536.194" y="227.382" transform="matrix(-1 -0.002 0.002 -1 1091.7136 457.1094)" fill="#FFE4B8" width="19.776" height="1.267"/>
		<path fill="#A37B40" d="M556.292,228.948l-20.425-0.041l0.006-1.824l20.425,0.041L556.292,228.948z M536.518,228.352l19.127,0.037
			l0.002-0.709l-19.127-0.038L536.518,228.352z"/>
	</g>
	<g opacity="0.7">
		
			<rect x="536.231" y="229.819" transform="matrix(-1 -0.0019 0.0019 -1 1091.7954 461.9555)" fill="#FFE4B8" width="19.777" height="1.267"/>
		<path fill="#A37B40" d="M556.331,231.384l-20.427-0.041l0.006-1.824l20.426,0.041L556.331,231.384z M536.555,230.788l19.129,0.037
			l0.001-0.709l-19.127-0.038L536.555,230.788z"/>
	</g>
	<g opacity="0.7">
		
			<rect x="536.258" y="232.346" transform="matrix(-1 -0.002 0.002 -1 1091.8317 467.0383)" fill="#FFE4B8" width="19.776" height="1.268"/>
		<path fill="#A37B40" d="M556.356,233.913l-20.426-0.04l0.006-1.826l20.426,0.041L556.356,233.913z M536.581,233.316l19.129,0.038
			l0.002-0.71l-19.128-0.038L536.581,233.316z"/>
	</g>
	<g opacity="0.7">
		
			<rect x="536.102" y="235.061" transform="matrix(-1 -0.0019 0.0019 -1 1091.5315 472.4272)" fill="#FFE4B8" width="19.776" height="1.267"/>
		<path fill="#A37B40" d="M556.201,236.626l-20.427-0.038l0.006-1.826l20.425,0.04L556.201,236.626z M536.426,236.031l19.128,0.037
			l0.001-0.71l-19.127-0.038L536.426,236.031z"/>
	</g>
	<g opacity="0.7">
		
			<rect x="536.257" y="237.698" transform="matrix(-1 -0.002 0.002 -1 1091.8242 477.7293)" fill="#FFE4B8" width="19.776" height="1.268"/>
		<path fill="#A37B40" d="M556.355,239.265l-20.426-0.04l0.004-1.824l20.427,0.039L556.355,239.265z M536.58,238.668l19.127,0.038
			l0.003-0.711l-19.129-0.037L536.58,238.668z"/>
	</g>
	<g opacity="0.7">
		
			<rect x="536.168" y="240.134" transform="matrix(-1 -0.0019 0.0019 -1 1091.6506 482.5862)" fill="#FFE4B8" width="19.778" height="1.268"/>
		<path fill="#A37B40" d="M556.268,241.7l-20.426-0.039l0.005-1.825l20.427,0.04L556.268,241.7z M536.492,241.104l19.129,0.037
			l0.002-0.71l-19.128-0.038L536.492,241.104z"/>
	</g>
</g>
<g>
	<g>
		<g>
			<g>
				<circle fill="#999999" cx="535.703" cy="239.882" r="5.571"/>
			</g>
		</g>
		<g>
			<g>
				<path fill="#FFFFFF" d="M535.242,245.807c-3.267-0.253-5.719-3.118-5.465-6.385c0.254-3.268,3.119-5.719,6.386-5.466
					c3.268,0.254,5.719,3.119,5.466,6.386C541.375,243.609,538.51,246.061,535.242,245.807z M536.105,234.697
					c-2.859-0.222-5.365,1.923-5.587,4.782c-0.223,2.859,1.923,5.366,4.782,5.587c2.858,0.222,5.364-1.923,5.587-4.782
					C541.109,237.426,538.964,234.919,536.105,234.697z"/>
			</g>
		</g>
	</g>
	<g>
		<g>
			<polygon fill="#FFFFFF" points="534.049,242.794 533.309,242.737 533.5,240.271 535.204,240.404 535.348,238.552 
				537.223,238.698 537.357,236.97 538.098,237.027 537.906,239.496 536.031,239.35 535.887,241.202 534.183,241.069 			"/>
		</g>
	</g>
</g>
<g>
	<g opacity="0.7">
		
			<rect x="133.153" y="168.295" transform="matrix(1 0.0023 -0.0023 1 0.4372 -0.3327)" fill="#FFE4B8" width="21.286" height="40.474"/>
		<path fill="#A37B40" d="M154.741,209.147l-21.983-0.05l0.094-41.181l21.983,0.05L154.741,209.147z M133.457,208.391l20.588,0.047
			l0.089-39.767l-20.587-0.048L133.457,208.391z"/>
	</g>
	<g opacity="0.7">
		
			<rect x="133.248" y="205.794" transform="matrix(1 0.0023 -0.0023 1 0.4696 -0.3262)" fill="#FFE4B8" width="21.285" height="1.609"/>
		<path fill="#A37B40" d="M154.878,207.782l-21.982-0.051l0.004-2.316l21.985,0.051L154.878,207.782z M133.596,207.025l20.586,0.047
			l0.002-0.901l-20.587-0.047L133.596,207.025z"/>
	</g>
	<g opacity="0.7">
		
			<rect x="133.207" y="202.694" transform="matrix(1 0.0023 -0.0023 1 0.4719 -0.3327)" fill="#FFE4B8" width="21.285" height="1.609"/>
		<path fill="#A37B40" d="M154.837,204.681l-21.982-0.05l0.006-2.316l21.982,0.05L154.837,204.681z M133.555,203.925l20.587,0.047
			l0.003-0.901l-20.586-0.047L133.555,203.925z"/>
	</g>
	<g opacity="0.7">
		
			<rect x="133.166" y="199.6" transform="matrix(1 0.0023 -0.0023 1 0.4601 -0.3294)" fill="#FFE4B8" width="21.286" height="1.609"/>
		<path fill="#A37B40" d="M154.799,201.588l-21.985-0.05l0.008-2.316l21.982,0.049L154.799,201.588z M133.515,200.832l20.586,0.047
			l0.002-0.901l-20.586-0.047L133.515,200.832z"/>
	</g>
	<g opacity="0.7">
		
			<rect x="133.138" y="196.388" transform="matrix(1 0.0023 -0.0023 1 0.4482 -0.326)" fill="#FFE4B8" width="21.284" height="1.61"/>
		<path fill="#A37B40" d="M154.771,198.377l-21.984-0.049l0.005-2.318l21.982,0.05L154.771,198.377z M133.485,197.621l20.589,0.047
			v-0.902l-20.584-0.047L133.485,197.621z"/>
	</g>
	<g opacity="0.7">
		
			<rect x="133.306" y="192.942" transform="matrix(1 0.0023 -0.0023 1 0.4404 -0.3264)" fill="#FFE4B8" width="21.286" height="1.609"/>
		<path fill="#A37B40" d="M154.938,194.931l-21.984-0.051l0.005-2.316l21.984,0.049L154.938,194.931z M133.655,194.174l20.585,0.048
			l0.002-0.902l-20.586-0.048L133.655,194.174z"/>
	</g>
	<g opacity="0.7">
		
			<rect x="133.14" y="189.593" transform="matrix(1 0.0023 -0.0023 1 0.4415 -0.3326)" fill="#FFE4B8" width="21.284" height="1.609"/>
		<path fill="#A37B40" d="M154.773,191.581l-21.986-0.051l0.007-2.317l21.982,0.05L154.773,191.581z M133.49,190.824l20.585,0.048
			l0.001-0.902l-20.585-0.047L133.49,190.824z"/>
	</g>
	<g opacity="0.7">
		
			<rect x="133.234" y="186.499" transform="matrix(1 0.0023 -0.0023 1 0.4343 -0.3328)" fill="#FFE4B8" width="21.286" height="1.609"/>
		<path fill="#A37B40" d="M154.866,188.488l-21.984-0.051l0.006-2.316l21.982,0.05L154.866,188.488z M133.582,187.731l20.587,0.048
			l0.002-0.903l-20.587-0.048L133.582,187.731z"/>
	</g>
</g>
<g>
	<g opacity="0.7">
		
			<rect x="154.995" y="168.259" transform="matrix(-1 -0.0023 0.0023 -1 330.8329 377.3802)" fill="#FFE4B8" width="21.285" height="40.475"/>
		<path fill="#A37B40" d="M176.583,209.113l-21.985-0.052l0.095-41.18l21.982,0.05L176.583,209.113z M155.298,208.356l20.587,0.047
			l0.09-39.766l-20.586-0.047L155.298,208.356z"/>
	</g>
	<g opacity="0.7">
		
			<rect x="154.899" y="169.625" transform="matrix(-1 -0.0023 0.0023 -1 330.6921 341.2382)" fill="#FFE4B8" width="21.286" height="1.61"/>
		<path fill="#A37B40" d="M176.532,171.613l-21.984-0.05l0.005-2.317l21.984,0.05L176.532,171.613z M155.249,170.857l20.587,0.047
			l0.001-0.902l-20.586-0.046L155.249,170.857z"/>
	</g>
	<g opacity="0.7">
		
			<rect x="154.941" y="172.726" transform="matrix(-1 -0.0023 0.0023 -1 330.763 347.4432)" fill="#FFE4B8" width="21.284" height="1.608"/>
		<path fill="#A37B40" d="M176.57,174.714l-21.982-0.052l0.006-2.316l21.982,0.052L176.57,174.714z M155.288,173.957l20.585,0.047
			l0.003-0.9l-20.586-0.048L155.288,173.957z"/>
	</g>
	<g opacity="0.7">
		
			<rect x="154.981" y="175.82" transform="matrix(-1 -0.0023 0.0023 -1 330.845 353.6242)" fill="#FFE4B8" width="21.285" height="1.608"/>
		<path fill="#A37B40" d="M176.613,177.808l-21.984-0.051l0.006-2.316l21.983,0.051L176.613,177.808z M155.328,177.051l20.588,0.047
			l0.001-0.901l-20.585-0.047L155.328,177.051z"/>
	</g>
	<g opacity="0.7">
		
			<rect x="155.009" y="179.029" transform="matrix(-1 -0.0023 0.0023 -1 330.882 360.0556)" fill="#FFE4B8" width="21.284" height="1.61"/>
		<path fill="#A37B40" d="M176.64,181.019l-21.983-0.051l0.006-2.318l21.983,0.052L176.64,181.019z M155.356,180.261l20.588,0.048
			l0.002-0.902l-20.587-0.048L155.356,180.261z"/>
	</g>
	<g opacity="0.7">
		
			<rect x="154.842" y="182.477" transform="matrix(-1 -0.0022 0.0022 -1 330.5548 366.9351)" fill="#FFE4B8" width="21.284" height="1.609"/>
		<path fill="#A37B40" d="M176.473,184.464l-21.984-0.048l0.006-2.318l21.983,0.051L176.473,184.464z M155.189,183.709l20.586,0.046
			l0.001-0.901l-20.585-0.048L155.189,183.709z"/>
	</g>
	<g opacity="0.7">
		
			<rect x="155.008" y="185.826" transform="matrix(-1 -0.0023 0.0023 -1 330.8674 373.6451)" fill="#FFE4B8" width="21.284" height="1.61"/>
		<path fill="#A37B40" d="M176.639,187.815l-21.983-0.051l0.004-2.316l21.985,0.049L176.639,187.815z M155.355,187.058l20.585,0.047
			l0.003-0.902l-20.588-0.047L155.355,187.058z"/>
	</g>
	<g opacity="0.7">
		
			<rect x="154.913" y="188.919" transform="matrix(-1 -0.0023 0.0023 -1 330.6805 379.8227)" fill="#FFE4B8" width="21.287" height="1.61"/>
		<path fill="#A37B40" d="M176.545,190.907l-21.984-0.05l0.005-2.317l21.984,0.05L176.545,190.907z M155.261,190.151l20.588,0.046
			l0.002-0.901l-20.587-0.048L155.261,190.151z"/>
	</g>
</g>
<g>
	<g opacity="0.7">
		<polygon fill="#FFE4B8" points="535.861,576.151 555.639,576.198 555.723,537.445 535.946,537.399 		"/>
		<path fill="#A37B40" d="M555.963,576.538l-20.428-0.05l0.088-39.429l20.425,0.049L555.963,576.538z M536.186,575.812l19.129,0.046
			l0.083-38.073l-19.127-0.046L536.186,575.812z"/>
	</g>
	<g opacity="0.7">
		
			<rect x="535.815" y="538.728" transform="matrix(-1 -0.0024 0.0024 -1 1090.1271 1080.2888)" fill="#FFE4B8" width="19.777" height="1.542"/>
		<path fill="#A37B40" d="M555.915,540.632l-20.426-0.047l0.005-2.218l20.427,0.047L555.915,540.632z M536.14,539.908l19.128,0.045
			l0.001-0.863l-19.127-0.044L536.14,539.908z"/>
	</g>
	<g opacity="0.7">
		
			<rect x="535.854" y="541.699" transform="matrix(-1 -0.0024 0.0024 -1 1090.196 1086.2285)" fill="#FFE4B8" width="19.776" height="1.538"/>
		<path fill="#A37B40" d="M555.951,543.601l-20.425-0.049l0.006-2.217l20.425,0.049L555.951,543.601z M536.177,542.876l19.127,0.046
			l0.002-0.862l-19.127-0.045L536.177,542.876z"/>
	</g>
	<g opacity="0.7">
		
			<rect x="535.891" y="544.661" transform="matrix(-1 -0.0023 0.0023 -1 1090.2914 1092.1265)" fill="#FFE4B8" width="19.777" height="1.54"/>
		<path fill="#A37B40" d="M555.99,546.564l-20.427-0.05l0.006-2.218l20.426,0.05L555.99,546.564z M536.214,545.839l19.129,0.045
			l0.001-0.863l-19.127-0.045L536.214,545.839z"/>
	</g>
	<g opacity="0.7">
		
			<rect x="535.917" y="547.733" transform="matrix(-1 -0.0024 0.0024 -1 1090.2826 1098.3259)" fill="#FFE4B8" width="19.776" height="1.541"/>
		<path fill="#A37B40" d="M556.016,549.638l-20.426-0.048l0.006-2.221l20.426,0.05L556.016,549.638z M536.24,548.913l19.129,0.045
			l0.002-0.863l-19.128-0.046L536.24,548.913z"/>
	</g>
	<g opacity="0.7">
		
			<rect x="535.761" y="551.034" transform="matrix(-1 -0.0024 0.0024 -1 1089.9894 1104.9011)" fill="#FFE4B8" width="19.776" height="1.541"/>
		<path fill="#A37B40" d="M555.86,552.937l-20.427-0.046l0.006-2.221l20.425,0.05L555.86,552.937z M536.085,552.214l19.128,0.045
			l0.001-0.864l-19.127-0.045L536.085,552.214z"/>
	</g>
	<g opacity="0.7">
		
			<rect x="535.916" y="554.242" transform="matrix(-1 -0.0023 0.0023 -1 1090.3188 1111.2898)" fill="#FFE4B8" width="19.776" height="1.541"/>
		<path fill="#A37B40" d="M556.015,556.146l-20.426-0.049l0.004-2.218l20.427,0.047L556.015,556.146z M536.239,555.42l19.127,0.046
			l0.003-0.864l-19.129-0.044L536.239,555.42z"/>
	</g>
	<g opacity="0.7">
		
			<rect x="535.828" y="557.202" transform="matrix(-1 -0.0023 0.0023 -1 1090.1648 1117.1833)" fill="#FFE4B8" width="19.778" height="1.541"/>
		<path fill="#A37B40" d="M555.927,559.105l-20.426-0.048l0.005-2.218l20.427,0.048L555.927,559.105z M536.151,558.382l19.129,0.044
			l0.002-0.861l-19.128-0.047L536.151,558.382z"/>
	</g>
</g>
<g>
	<g opacity="0.7">
		<polygon fill="#FFE4B8" points="515.637,537.446 535.414,537.399 535.498,576.152 515.722,576.198 		"/>
		<path fill="#A37B40" d="M535.823,576.489l-20.425,0.049l-0.088-39.429l20.428-0.05L535.823,576.489z M516.046,575.859
			l19.127-0.046l-0.083-38.073l-19.129,0.046L516.046,575.859z"/>
	</g>
	<g opacity="0.7">
		
			<rect x="515.59" y="573.328" transform="matrix(-1 0.0024 -0.0024 -1 1052.3171 1146.9512)" fill="#FFE4B8" width="19.777" height="1.542"/>
		<path fill="#A37B40" d="M535.696,575.184l-20.427,0.047l-0.005-2.218l20.426-0.047L535.696,575.184z M515.917,574.552
			l19.127-0.044l-0.001-0.863l-19.128,0.045L515.917,574.552z"/>
	</g>
	<g opacity="0.7">
		
			<rect x="515.629" y="570.36" transform="matrix(-1 0.0024 -0.0024 -1 1052.3865 1141.0116)" fill="#FFE4B8" width="19.776" height="1.538"/>
		<path fill="#A37B40" d="M535.732,572.214l-20.425,0.049l-0.006-2.217l20.425-0.049L535.732,572.214z M515.954,571.583
			l19.127-0.045l-0.002-0.862l-19.127,0.046L515.954,571.583z"/>
	</g>
	<g opacity="0.7">
		
			<rect x="515.666" y="567.397" transform="matrix(-1 0.0023 -0.0023 -1 1052.4265 1135.1128)" fill="#FFE4B8" width="19.777" height="1.54"/>
		<path fill="#A37B40" d="M535.771,569.251l-20.426,0.05l-0.006-2.218l20.427-0.05L535.771,569.251z M515.992,568.622l19.127-0.045
			l-0.001-0.863l-19.129,0.045L515.992,568.622z"/>
	</g>
	<g opacity="0.7">
		
			<rect x="515.693" y="564.324" transform="matrix(-1 0.0024 -0.0024 -1 1052.5278 1128.915)" fill="#FFE4B8" width="19.776" height="1.541"/>
		<path fill="#A37B40" d="M535.797,566.179l-20.426,0.05l-0.006-2.221l20.426-0.048L535.797,566.179z M516.019,565.549l19.128-0.046
			l-0.002-0.863l-19.129,0.045L516.019,565.549z"/>
	</g>
	<g opacity="0.7">
		
			<rect x="515.537" y="561.022" transform="matrix(-1 0.0024 -0.0024 -1 1052.1797 1122.3389)" fill="#FFE4B8" width="19.776" height="1.541"/>
		<path fill="#A37B40" d="M535.64,562.878l-20.425,0.05l-0.006-2.221l20.427-0.046L535.64,562.878z M515.862,562.248l19.127-0.045
			l-0.001-0.864l-19.128,0.045L515.862,562.248z"/>
	</g>
	<g opacity="0.7">
		
			<rect x="515.691" y="557.815" transform="matrix(-1 0.0023 -0.0023 -1 1052.4542 1115.9495)" fill="#FFE4B8" width="19.776" height="1.541"/>
		<path fill="#A37B40" d="M535.795,559.672l-20.427,0.047l-0.004-2.218l20.426-0.049L535.795,559.672z M516.016,559.04l19.129-0.044
			l-0.003-0.864l-19.127,0.046L516.016,559.04z"/>
	</g>
	<g opacity="0.7">
		
			<rect x="515.603" y="554.854" transform="matrix(-1 0.0023 -0.0023 -1 1052.2451 1110.0551)" fill="#FFE4B8" width="19.778" height="1.541"/>
		<path fill="#A37B40" d="M535.708,556.71l-20.427,0.048l-0.005-2.218l20.426-0.048L535.708,556.71z M515.93,556.08l19.128-0.047
			l-0.002-0.861l-19.129,0.044L515.93,556.08z"/>
	</g>
</g>
<g>
	<g>
		<g>
			<g>
				<circle fill="#999999" cx="535.362" cy="557.386" r="5.571"/>
			</g>
		</g>
		<g>
			<g>
				<path fill="#FFFFFF" d="M534.901,563.311c-3.267-0.253-5.719-3.117-5.465-6.385s3.119-5.719,6.386-5.466
					c3.268,0.254,5.719,3.118,5.466,6.386C541.034,561.113,538.169,563.564,534.901,563.311z M535.765,552.201
					c-2.859-0.223-5.365,1.923-5.587,4.781c-0.223,2.859,1.923,5.366,4.782,5.588c2.858,0.223,5.364-1.923,5.587-4.781
					C540.769,554.93,538.623,552.423,535.765,552.201z"/>
			</g>
		</g>
	</g>
	<g>
		<g>
			<polygon fill="#FFFFFF" points="533.708,560.299 532.968,560.24 533.159,557.775 534.863,557.908 535.007,556.057 
				536.882,556.201 537.017,554.474 537.757,554.531 537.565,557 535.69,556.854 535.546,558.706 533.842,558.573 			"/>
		</g>
	</g>
</g>
<g>
	<g opacity="0.7">
		<polygon fill="#FFE4B8" points="78.491,525.08 58.713,525.032 58.629,563.786 78.406,563.831 		"/>
		<path fill="#A37B40" d="M78.73,564.171l-20.426-0.048l0.087-39.43l20.426,0.049L78.73,564.171z M58.955,563.447l19.129,0.046
			l0.083-38.076l-19.129-0.045L58.955,563.447z"/>
	</g>
	<g opacity="0.7">
		<rect x="58.76" y="560.96" transform="matrix(1 0.0023 -0.0023 1 1.3039 -0.1578)" fill="#FFE4B8" width="19.776" height="1.54"/>
		<path fill="#A37B40" d="M78.858,562.864l-20.425-0.049l0.004-2.218l20.427,0.049L78.858,562.864z M59.083,562.141l19.127,0.045
			l0.002-0.863l-19.128-0.045L59.083,562.141z"/>
	</g>
	<g opacity="0.7">
		
			<rect x="58.722" y="557.992" transform="matrix(1 0.0024 -0.0024 1 1.3246 -0.161)" fill="#FFE4B8" width="19.776" height="1.54"/>
		<path fill="#A37B40" d="M78.82,559.895l-20.425-0.047l0.006-2.218l20.425,0.048L78.82,559.895z M59.045,559.172l19.128,0.045
			l0.003-0.863l-19.128-0.045L59.045,559.172z"/>
	</g>
	<g opacity="0.7">
		
			<rect x="58.685" y="555.03" transform="matrix(1 0.0024 -0.0024 1 1.3175 -0.1609)" fill="#FFE4B8" width="19.777" height="1.541"/>
		<path fill="#A37B40" d="M78.784,556.934l-20.427-0.049l0.007-2.218l20.425,0.048L78.784,556.934z M59.008,556.209l19.127,0.046
			l0.002-0.863l-19.128-0.046L59.008,556.209z"/>
	</g>
	<g opacity="0.7">
		
			<rect x="58.658" y="551.956" transform="matrix(1 0.0023 -0.0023 1 1.283 -0.1576)" fill="#FFE4B8" width="19.776" height="1.541"/>
		<path fill="#A37B40" d="M78.757,553.859l-20.426-0.047l0.005-2.22l20.425,0.048L78.757,553.859z M58.981,553.136l19.13,0.045
			v-0.863l-19.126-0.045L58.981,553.136z"/>
	</g>
	<g opacity="0.7">
		
			<rect x="58.814" y="548.655" transform="matrix(1 0.0023 -0.0023 1 1.2481 -0.1547)" fill="#FFE4B8" width="19.777" height="1.54"/>
		<path fill="#A37B40" d="M78.913,550.56l-20.426-0.049l0.005-2.218l20.427,0.048L78.913,550.56z M59.138,549.834l19.127,0.047
			l0.002-0.863l-19.128-0.047L59.138,549.834z"/>
	</g>
	<g opacity="0.7">
		
			<rect x="58.66" y="545.448" transform="matrix(1 0.0024 -0.0024 1 1.2949 -0.1609)" fill="#FFE4B8" width="19.776" height="1.541"/>
		<path fill="#A37B40" d="M78.76,547.353l-20.428-0.049l0.006-2.219l20.425,0.049L78.76,547.353z M58.985,546.629l19.127,0.045
			l0.001-0.864l-19.127-0.046L58.985,546.629z"/>
	</g>
	<g opacity="0.7">
		
			<rect x="58.747" y="542.487" transform="matrix(1 0.0024 -0.0024 1 1.3146 -0.1645)" fill="#FFE4B8" width="19.777" height="1.542"/>
		<path fill="#A37B40" d="M78.846,544.392l-20.426-0.05l0.006-2.218l20.425,0.048L78.846,544.392z M59.071,543.667l19.128,0.045
			l0.002-0.864l-19.128-0.045L59.071,543.667z"/>
	</g>
</g>
<g>
	<g opacity="0.7">
		<polygon fill="#FFE4B8" points="78.923,563.753 98.701,563.8 98.785,525.047 79.008,525.001 		"/>
		<path fill="#A37B40" d="M99.025,564.14l-20.428-0.05l0.088-39.429l20.425,0.049L99.025,564.14z M79.248,563.413l19.129,0.046
			l0.083-38.073l-19.127-0.046L79.248,563.413z"/>
	</g>
	<g opacity="0.7">
		
			<rect x="78.877" y="526.329" transform="matrix(-1 -0.0024 0.0024 -1 176.2818 1054.4092)" fill="#FFE4B8" width="19.777" height="1.542"/>
		<path fill="#A37B40" d="M98.977,528.233l-20.426-0.047l0.005-2.218l20.427,0.047L98.977,528.233z M79.202,527.51l19.128,0.045
			l0.001-0.863l-19.127-0.044L79.202,527.51z"/>
	</g>
	<g opacity="0.7">
		
			<rect x="78.915" y="529.301" transform="matrix(-1 -0.0024 0.0024 -1 176.3508 1060.3486)" fill="#FFE4B8" width="19.776" height="1.538"/>
		<path fill="#A37B40" d="M99.013,531.202l-20.425-0.049l0.006-2.217l20.425,0.049L99.013,531.202z M79.239,530.478l19.127,0.046
			l0.002-0.862l-19.127-0.045L79.239,530.478z"/>
	</g>
	<g opacity="0.7">
		
			<rect x="78.953" y="532.262" transform="matrix(-1 -0.0023 0.0023 -1 176.4454 1066.2693)" fill="#FFE4B8" width="19.777" height="1.54"/>
		<path fill="#A37B40" d="M99.052,534.166l-20.427-0.05l0.006-2.218l20.426,0.05L99.052,534.166z M79.276,533.44l19.129,0.045
			l0.001-0.863l-19.127-0.045L79.276,533.44z"/>
	</g>
	<g opacity="0.7">
		
			<rect x="78.979" y="535.334" transform="matrix(-1 -0.0024 0.0024 -1 176.4379 1072.4233)" fill="#FFE4B8" width="19.776" height="1.541"/>
		<path fill="#A37B40" d="M99.078,537.239l-20.426-0.048l0.006-2.221l20.426,0.05L99.078,537.239z M79.302,536.515l19.129,0.045
			l0.002-0.863l-19.128-0.046L79.302,536.515z"/>
	</g>
	<g opacity="0.7">
		
			<rect x="78.823" y="538.636" transform="matrix(-1 -0.0024 0.0024 -1 176.1441 1079.0212)" fill="#FFE4B8" width="19.776" height="1.541"/>
		<path fill="#A37B40" d="M98.922,540.538l-20.427-0.046l0.006-2.221l20.425,0.05L98.922,540.538z M79.147,539.815l19.128,0.045
			l0.001-0.864l-19.127-0.045L79.147,539.815z"/>
	</g>
	<g opacity="0.7">
		
			<rect x="78.978" y="541.843" transform="matrix(-1 -0.0023 0.0023 -1 176.4728 1085.4324)" fill="#FFE4B8" width="19.776" height="1.541"/>
		<path fill="#A37B40" d="M99.077,543.747l-20.426-0.049l0.004-2.218l20.427,0.047L99.077,543.747z M79.301,543.021l19.127,0.046
			l0.003-0.864l-19.129-0.044L79.301,543.021z"/>
	</g>
	<g opacity="0.7">
		
			<rect x="78.89" y="544.804" transform="matrix(-1 -0.0023 0.0023 -1 176.3182 1091.3486)" fill="#FFE4B8" width="19.778" height="1.541"/>
		<path fill="#A37B40" d="M98.989,546.707l-20.426-0.048l0.005-2.218l20.427,0.048L98.989,546.707z M79.213,545.983l19.129,0.044
			l0.002-0.861l-19.128-0.047L79.213,545.983z"/>
	</g>
</g>
<g>
	<g>
		<g>
			<g>
				<circle fill="#999999" cx="78.424" cy="544.988" r="5.571"/>
			</g>
		</g>
		<g>
			<g>
				<path fill="#FFFFFF" d="M77.963,550.912c-3.267-0.253-5.719-3.117-5.465-6.385s3.119-5.719,6.386-5.466
					c3.268,0.254,5.719,3.118,5.466,6.386C84.096,548.715,81.231,551.166,77.963,550.912z M78.827,539.803
					c-2.859-0.223-5.365,1.923-5.587,4.781c-0.223,2.859,1.923,5.366,4.782,5.588c2.858,0.223,5.364-1.923,5.587-4.781
					C83.831,542.531,81.685,540.024,78.827,539.803z"/>
			</g>
		</g>
	</g>
	<g>
		<g>
			<polygon fill="#FFFFFF" points="76.77,547.9 76.03,547.842 76.221,545.377 77.925,545.51 78.069,543.658 79.944,543.803 
				80.079,542.075 80.819,542.133 80.627,544.602 78.752,544.455 78.608,546.308 76.904,546.175 			"/>
		</g>
	</g>
</g>
<rect x="58.352" y="457.73" opacity="0.7" fill="#FFE4B8" stroke="#A37B40" stroke-width="2" stroke-miterlimit="10" width="13.317" height="25.81"/>
<polygon opacity="0.7" fill="#FFE4B8" stroke="#A37B40" stroke-width="2" stroke-miterlimit="10" points="77.744,524.095 
	58.352,524.095 58.352,484.426 81.727,484.426 99.209,504.48 89.61,511.023 77.744,511.523 "/>
<rect x="403.872" y="587.913" fill="#FFE4B8" stroke="#A37B40" stroke-width="2" stroke-miterlimit="10" width="18.302" height="13.238"/>
<rect x="366.641" y="578.191" fill="#FFE4B8" stroke="#A37B40" stroke-width="2" stroke-miterlimit="10" width="34.479" height="12.657"/>
<rect x="279.072" y="593.191" opacity="0.5" fill="#E2E2E2" stroke="#686868" stroke-width="2" stroke-miterlimit="10" width="57.001" height="12.657"/>
<rect x="288.898" y="598.694" fill="#E2E2E2" stroke="#686868" stroke-miterlimit="10" width="9.301" height="5.854"/>
<rect x="301.81" y="598.694" fill="#E2E2E2" stroke="#686868" stroke-miterlimit="10" width="9.301" height="5.854"/>
<rect x="315.348" y="598.694" fill="#E2E2E2" stroke="#686868" stroke-miterlimit="10" width="9.301" height="5.854"/>
<rect x="407.767" y="568.332" fill="#FFE4B8" stroke="#A37B40" stroke-width="2" stroke-miterlimit="10" width="14.214" height="18.303"/>
<g opacity="0.5">
	<g>
		<g>
			<circle fill="#999999" cx="74.389" cy="624.594" r="9.67"/>
		</g>
		<g>
			<path fill="#FFFFFF" d="M74.389,634.909c-5.688,0-10.315-4.628-10.315-10.315s4.627-10.314,10.315-10.314
				s10.315,4.627,10.315,10.314S80.076,634.909,74.389,634.909z M74.389,615.568c-4.977,0-9.025,4.049-9.025,9.025
				c0,4.978,4.049,9.025,9.025,9.025s9.025-4.048,9.025-9.025C83.414,619.617,79.365,615.568,74.389,615.568z"/>
		</g>
	</g>
	<g>
		<g>
			<path fill="#FFFFFF" d="M72.615,630.456h-1.47c-0.306,0-0.555-0.249-0.555-0.554v-2.898c0-0.213,0.109-0.475,0.26-0.625
				l4.688-4.666c0.03-0.03,0.069-0.125,0.069-0.168v-2.258c0-0.306,0.249-0.555,0.555-0.555h1.47c0.306,0,0.555,0.249,0.555,0.555
				v3.062c0,0.212-0.109,0.475-0.26,0.624l-4.688,4.667c-0.03,0.029-0.069,0.125-0.069,0.167v2.095
				C73.169,630.207,72.92,630.456,72.615,630.456z M71.235,629.812h1.289v-2.004c0-0.212,0.109-0.476,0.26-0.624l4.688-4.667
				c0.03-0.03,0.069-0.125,0.069-0.167v-2.973h-1.289v2.168c0,0.213-0.109,0.476-0.26,0.625l-4.688,4.666
				c-0.03,0.03-0.069,0.125-0.069,0.168V629.812z"/>
		</g>
	</g>
</g>
<g>
	<g>
		<g>
			<circle fill="#7776BF" cx="384.425" cy="183.356" r="7.676"/>
		</g>
		<g>
			<path fill="#FFFFFF" d="M384.425,191.544c-4.515,0-8.188-3.673-8.188-8.188c0-4.515,3.674-8.188,8.188-8.188
				c4.514,0,8.188,3.673,8.188,8.188C392.612,187.872,388.938,191.544,384.425,191.544z M384.425,176.192
				c-3.951,0-7.165,3.213-7.165,7.164c0,3.951,3.214,7.166,7.165,7.166s7.164-3.214,7.164-7.166
				C391.589,179.406,388.376,176.192,384.425,176.192z"/>
		</g>
	</g>
	<g>
		<path fill="#FFFFFF" d="M385.662,188.342c0,0.101-0.083,0.184-0.185,0.184h-2.105c-0.102,0-0.184-0.083-0.184-0.184v-3.726
			c0-0.101,0.082-0.185,0.184-0.185h2.105c0.102,0,0.185,0.083,0.185,0.185V188.342z"/>
	</g>
	<g>
		<circle fill="#FFFFFF" cx="384.373" cy="179.552" r="1.751"/>
	</g>
	<g>
		<path fill="#FFFFFF" d="M387.165,186.315c0.041,0.092-0.008,0.167-0.108,0.167h-5.263c-0.102,0-0.15-0.076-0.108-0.167
			l1.897-4.207c0.042-0.092,0.158-0.168,0.26-0.168h1.164c0.102,0,0.219,0.077,0.26,0.168L387.165,186.315z"/>
	</g>
</g>
<g>
	<g>
		<g>
			<circle fill="#7776BF" cx="502.2" cy="449.743" r="7.676"/>
		</g>
		<g>
			<path fill="#FFFFFF" d="M502.199,457.931c-4.514,0-8.188-3.673-8.188-8.188s3.674-8.188,8.188-8.188
				c4.515,0,8.188,3.674,8.188,8.188S506.714,457.931,502.199,457.931z M502.199,442.579c-3.95,0-7.164,3.213-7.164,7.164
				s3.214,7.165,7.164,7.165c3.951,0,7.165-3.214,7.165-7.165S506.15,442.579,502.199,442.579z"/>
		</g>
	</g>
	<g>
		<path fill="#FFFFFF" d="M503.437,454.728c0,0.102-0.083,0.185-0.185,0.185h-2.104c-0.103,0-0.185-0.083-0.185-0.185v-3.726
			c0-0.101,0.082-0.185,0.185-0.185h2.104c0.102,0,0.185,0.084,0.185,0.185V454.728z"/>
	</g>
	<g>
		<circle fill="#FFFFFF" cx="502.148" cy="445.938" r="1.751"/>
	</g>
	<g>
		<path fill="#FFFFFF" d="M504.939,452.701c0.041,0.092-0.007,0.167-0.108,0.167h-5.263c-0.101,0-0.15-0.075-0.107-0.167
			l1.896-4.206c0.042-0.092,0.159-0.169,0.26-0.169h1.164c0.102,0,0.219,0.077,0.26,0.169L504.939,452.701z"/>
	</g>
</g>
<g>
	<g>
		<g>
			<circle fill="#7776BF" cx="174.827" cy="586.255" r="7.677"/>
		</g>
		<g>
			<path fill="#FFFFFF" d="M174.827,594.443c-4.515,0-8.188-3.674-8.188-8.188s3.673-8.188,8.188-8.188
				c4.514,0,8.188,3.674,8.188,8.188S179.341,594.443,174.827,594.443z M174.827,579.091c-3.951,0-7.165,3.214-7.165,7.164
				c0,3.951,3.214,7.165,7.165,7.165c3.951,0,7.165-3.214,7.165-7.165C181.992,582.305,178.778,579.091,174.827,579.091z"/>
		</g>
	</g>
	<g>
		<path fill="#FFFFFF" d="M176.064,591.24c0,0.102-0.083,0.184-0.185,0.184h-2.105c-0.102,0-0.184-0.082-0.184-0.184v-3.727
			c0-0.102,0.082-0.184,0.184-0.184h2.105c0.101,0,0.185,0.082,0.185,0.184V591.24z"/>
	</g>
	<g>
		<circle fill="#FFFFFF" cx="174.776" cy="582.451" r="1.752"/>
	</g>
	<g>
		<path fill="#FFFFFF" d="M177.567,589.213c0.042,0.092-0.007,0.168-0.108,0.168h-5.262c-0.102,0-0.15-0.076-0.109-0.168
			l1.897-4.207c0.042-0.091,0.159-0.168,0.26-0.168h1.165c0.101,0,0.218,0.077,0.26,0.168L177.567,589.213z"/>
	</g>
</g>
<g>
	<g>
		<g>
			<circle fill="#7776BF" cx="109.936" cy="326.942" r="7.676"/>
		</g>
		<g>
			<path fill="#FFFFFF" d="M109.935,335.131c-4.514,0-8.188-3.673-8.188-8.188c0-4.514,3.674-8.188,8.188-8.188
				c4.515,0,8.188,3.674,8.188,8.188C118.124,331.458,114.45,335.131,109.935,335.131z M109.935,319.778
				c-3.95,0-7.165,3.214-7.165,7.164c0,3.951,3.214,7.166,7.165,7.166c3.951,0,7.165-3.214,7.165-7.166
				C117.1,322.992,113.886,319.778,109.935,319.778z"/>
		</g>
	</g>
	<g>
		<path fill="#FFFFFF" d="M111.172,331.928c0,0.101-0.083,0.184-0.185,0.184h-2.104c-0.102,0-0.184-0.083-0.184-0.184v-3.727
			c0-0.101,0.082-0.185,0.184-0.185h2.104c0.102,0,0.185,0.083,0.185,0.185V331.928z"/>
	</g>
	<g>
		<circle fill="#FFFFFF" cx="109.884" cy="323.138" r="1.752"/>
	</g>
	<g>
		<path fill="#FFFFFF" d="M112.675,329.901c0.042,0.091-0.007,0.167-0.108,0.167h-5.262c-0.101,0-0.15-0.076-0.108-0.167
			l1.897-4.207c0.042-0.092,0.159-0.168,0.26-0.168h1.164c0.101,0,0.218,0.076,0.26,0.168L112.675,329.901z"/>
	</g>
</g>
<g>
	<g>
		<g>
			<circle fill="#4E76BF" cx="111.965" cy="449.046" r="7.409"/>
		</g>
		<g>
			<path fill="#FFFFFF" d="M111.965,456.948c-4.357,0-7.903-3.545-7.903-7.902c0-4.359,3.545-7.904,7.903-7.904
				c4.358,0,7.903,3.545,7.903,7.904C119.868,453.403,116.323,456.948,111.965,456.948z M111.965,442.13
				c-3.813,0-6.915,3.103-6.915,6.916c0,3.812,3.102,6.914,6.915,6.914s6.915-3.102,6.915-6.914
				C118.88,445.232,115.778,442.13,111.965,442.13z"/>
		</g>
	</g>
	<g>
		<path fill="#FFFFFF" d="M113.159,453.856c0,0.098-0.08,0.178-0.178,0.178h-2.032c-0.098,0-0.178-0.08-0.178-0.178v-3.597
			c0-0.097,0.08-0.178,0.178-0.178h2.032c0.098,0,0.178,0.081,0.178,0.178V453.856z"/>
	</g>
	<g>
		<circle fill="#FFFFFF" cx="111.915" cy="445.374" r="1.691"/>
	</g>
	<g>
		<path fill="#FFFFFF" d="M114.188,451.884c0,0.099-0.08,0.178-0.178,0.178h-4.09c-0.097,0-0.178-0.079-0.178-0.178v-4.027
			c0-0.098,0.081-0.178,0.178-0.178h4.09c0.098,0,0.178,0.08,0.178,0.178V451.884z"/>
	</g>
</g>
<g>
	<g>
		<g>
			<circle fill="#4E76BF" cx="503.393" cy="330.435" r="7.409"/>
		</g>
		<g>
			<path fill="#FFFFFF" d="M503.394,338.337c-4.357,0-7.902-3.545-7.902-7.902c0-4.358,3.545-7.904,7.902-7.904
				s7.902,3.545,7.902,7.904C511.296,334.792,507.751,338.337,503.394,338.337z M503.394,323.52c-3.814,0-6.916,3.102-6.916,6.915
				c0,3.812,3.102,6.915,6.916,6.915c3.812,0,6.914-3.102,6.914-6.915C510.308,326.622,507.206,323.52,503.394,323.52z"/>
		</g>
	</g>
	<g>
		<path fill="#FFFFFF" d="M504.587,335.246c0,0.097-0.08,0.178-0.178,0.178h-2.032c-0.097,0-0.178-0.081-0.178-0.178v-3.597
			c0-0.097,0.081-0.178,0.178-0.178h2.032c0.098,0,0.178,0.081,0.178,0.178V335.246z"/>
	</g>
	<g>
		<circle fill="#FFFFFF" cx="503.343" cy="326.762" r="1.691"/>
	</g>
	<g>
		<path fill="#FFFFFF" d="M505.616,333.273c0,0.098-0.08,0.178-0.178,0.178h-4.09c-0.098,0-0.178-0.08-0.178-0.178v-4.028
			c0-0.098,0.08-0.178,0.178-0.178h4.09c0.098,0,0.178,0.08,0.178,0.178V333.273z"/>
	</g>
</g>
<g>
	<g>
		<g>
			<circle fill="#4E76BF" cx="228.368" cy="183.356" r="7.409"/>
		</g>
		<g>
			<path fill="#FFFFFF" d="M228.368,191.259c-4.357,0-7.902-3.545-7.902-7.902c0-4.358,3.545-7.903,7.902-7.903
				c4.358,0,7.903,3.545,7.903,7.903C236.271,187.714,232.726,191.259,228.368,191.259z M228.368,176.441
				c-3.813,0-6.915,3.102-6.915,6.915c0,3.812,3.102,6.915,6.915,6.915c3.813,0,6.916-3.102,6.916-6.915
				C235.283,179.543,232.181,176.441,228.368,176.441z"/>
		</g>
	</g>
	<g>
		<path fill="#FFFFFF" d="M229.562,188.168c0,0.097-0.08,0.178-0.178,0.178h-2.032c-0.097,0-0.178-0.081-0.178-0.178v-3.597
			c0-0.097,0.081-0.178,0.178-0.178h2.032c0.098,0,0.178,0.081,0.178,0.178V188.168z"/>
	</g>
	<g>
		<circle fill="#FFFFFF" cx="228.318" cy="179.685" r="1.69"/>
	</g>
	<g>
		<path fill="#FFFFFF" d="M230.591,186.195c0,0.099-0.08,0.178-0.178,0.178h-4.09c-0.098,0-0.178-0.079-0.178-0.178v-4.028
			c0-0.098,0.08-0.178,0.178-0.178h4.09c0.098,0,0.178,0.08,0.178,0.178V186.195z"/>
	</g>
</g>
<polygon fill="#FFE4B8" stroke="#A37B40" stroke-width="2" stroke-miterlimit="10" points="556.181,522.828 521.876,523.183 
	541.245,487.129 556.181,487.631 "/>
<polygon fill="#FFE4B8" stroke="#A37B40" stroke-width="2" stroke-miterlimit="10" points="556.181,487.46 540.831,487.814 
	553.257,449.759 556.181,449.26 "/>
<rect x="525.812" y="257.477" fill="#FFE4B8" stroke="#A37B40" stroke-width="2" stroke-miterlimit="10" width="30.442" height="11.281"/>
<text transform="matrix(-6.123234e-17 -1 1 -6.123234e-17 287.0205 259.9199)" fill="#666666" font-family="'HelveticaNeue-Light'" font-size="4.6406">1</text>
<text transform="matrix(-6.123234e-17 -1 1 -6.123234e-17 287.0205 257.6777)" fill="#666666" font-family="'HelveticaNeue-Light'" font-size="4.6406">1</text>
<text transform="matrix(-6.123234e-17 -1 1 -6.123234e-17 287.0205 255.4385)" fill="#666666" font-family="'HelveticaNeue-Light'" font-size="4.6406">1/</text>
<text transform="matrix(-6.123234e-17 -1 1 -6.123234e-17 287.0205 251.5693)" fill="#666666" font-family="'HelveticaNeue-Light'" font-size="4.6406">1</text>
<text transform="matrix(-6.123234e-17 -1 1 -6.123234e-17 287.0205 249.333)" fill="#666666" font-family="'HelveticaNeue-Light'" font-size="4.6406">12</text>
<text transform="matrix(-6.123234e-17 -1 1 -6.123234e-17 240.8467 265.8896)" fill="#666666" font-family="'HelveticaNeue-Light'" font-size="5.0933">1</text>
<text transform="matrix(-6.123234e-17 -1 1 -6.123234e-17 240.8467 263.4287)" fill="#666666" font-family="'HelveticaNeue-Light'" font-size="5.0933">12/</text>
<text transform="matrix(-6.123234e-17 -1 1 -6.123234e-17 240.8467 256.3477)" fill="#666666" font-family="'HelveticaNeue-Light'" font-size="5.0933">1</text>
<text transform="matrix(-6.123234e-17 -1 1 -6.123234e-17 240.8467 253.8867)" fill="#666666" font-family="'HelveticaNeue-Light'" font-size="5.0933">13</text>
<text transform="matrix(0.3812 0.9245 -0.9245 0.3812 180.2368 253.1284)" fill="#666666" font-family="'HelveticaNeue-Light'" font-size="5.3184">1</text>
<text transform="matrix(0.3812 0.9245 -0.9245 0.3812 181.2153 255.5059)" fill="#666666" font-family="'HelveticaNeue-Light'" font-size="5.3184">13/</text>
<text transform="matrix(0.3812 0.9245 -0.9245 0.3812 184.0322 262.3345)" fill="#666666" font-family="'HelveticaNeue-Light'" font-size="5.3184">1</text>
<text transform="matrix(0.3812 0.9245 -0.9245 0.3812 185.0103 264.709)" fill="#666666" font-family="'HelveticaNeue-Light'" font-size="5.3184">14</text>
<text transform="matrix(0.8102 0.5861 -0.5861 0.8102 130.7031 296.8262)" fill="#666666" font-family="'HelveticaNeue-Light'" font-size="5.3165">1</text>
<text transform="matrix(0.8102 0.5861 -0.5861 0.8102 132.7798 298.3291)" fill="#666666" font-family="'HelveticaNeue-Light'" font-size="5.3165">14/</text>
<text transform="matrix(0.8102 0.5861 -0.5861 0.8102 138.7676 302.6606)" fill="#666666" font-family="'HelveticaNeue-Light'" font-size="5.3165">1</text>
<text transform="matrix(0.8102 0.5861 -0.5861 0.8102 140.8428 304.1616)" fill="#666666" font-family="'HelveticaNeue-Light'" font-size="5.3165">15</text>
<text transform="matrix(0.9925 0.122 -0.122 0.9925 97.0171 351.7769)" fill="#666666" font-family="'HelveticaNeue-Light'" font-size="3.6549">1</text>
<text transform="matrix(0.9925 0.122 -0.122 0.9925 98.7661 351.9912)" fill="#666666" font-family="'HelveticaNeue-Light'" font-size="3.6549">15/</text>
<text transform="matrix(0.9925 0.122 -0.122 0.9925 103.8091 352.6108)" fill="#666666" font-family="'HelveticaNeue-Light'" font-size="3.6549">1</text>
<text transform="matrix(0.9925 0.122 -0.122 0.9925 105.561 352.8267)" fill="#666666" font-family="'HelveticaNeue-Light'" font-size="3.6549">1</text>
<text transform="matrix(0.9925 0.122 -0.122 0.9925 107.5737 353.0737)" fill="#666666" font-family="'HelveticaNeue-Light'" font-size="3.6549">6</text>
<text transform="matrix(1 0 0 1 104.832 390.0068)" fill="#666666" font-family="'HelveticaNeue-Light'" font-size="4.4608">1</text>
<text transform="matrix(1 0 0 1 106.9829 390.0068)" fill="#666666" font-family="'HelveticaNeue-Light'" font-size="4.4608">16/</text>
<text transform="matrix(1 0 0 1 113.1836 390.0068)" fill="#666666" font-family="'HelveticaNeue-Light'" font-size="4.4608">1</text>
<text transform="matrix(1 0 0 1 115.334 390.0068)" fill="#666666" font-family="'HelveticaNeue-Light'" font-size="4.4608">17</text>
<text transform="matrix(0.9944 -0.1056 0.1056 0.9944 91.8994 428.6934)" fill="#666666" font-family="'HelveticaNeue-Light'" font-size="5.3924">1</text>
<text transform="matrix(0.9944 -0.1056 0.1056 0.9944 94.4829 428.4189)" fill="#666666" font-family="'HelveticaNeue-Light'" font-size="5.3924">17/</text>
<text transform="matrix(0.9944 -0.1056 0.1056 0.9944 101.938 427.627)" fill="#666666" font-family="'HelveticaNeue-Light'" font-size="5.3924">1</text>
<text transform="matrix(0.9944 -0.1056 0.1056 0.9944 104.5225 427.3525)" fill="#666666" font-family="'HelveticaNeue-Light'" font-size="5.3924">18</text>
<text transform="matrix(0.7928 -0.6095 0.6095 0.7928 135.5674 481.0508)" fill="#666666" font-family="'HelveticaNeue-Light'" font-size="6.0001">1</text>
<text transform="matrix(0.7928 -0.6095 0.6095 0.7928 137.8604 479.2891)" fill="#666666" font-family="'HelveticaNeue-Light'" font-size="6.0001">18/1</text>
<text transform="matrix(0.7928 -0.6095 0.6095 0.7928 146.7646 472.4404)" fill="#666666" font-family="'HelveticaNeue-Light'" font-size="6.0001">19</text>
<text transform="matrix(0.3722 -0.9282 0.9282 0.3722 184.8447 525.1816)" fill="#666666" font-family="'HelveticaNeue-Light'" font-size="5.0386">1</text>
<text transform="matrix(0.3722 -0.9282 0.9282 0.3722 185.749 522.9268)" fill="#666666" font-family="'HelveticaNeue-Light'" font-size="5.0386">19/1</text>
<text transform="matrix(0.3722 -0.9282 0.9282 0.3722 189.3994 513.8252)" fill="#666666" font-family="'HelveticaNeue-Light'" font-size="5.0386">20</text>
<text transform="matrix(-6.123234e-17 -1 1 -6.123234e-17 243.6343 535.0234)" fill="#666666" font-family="'HelveticaNeue-Light'" font-size="4.9899">120/121</text>
<text transform="matrix(0.85 0 0 1 147.8301 488.291)" fill="#666666" font-family="'HelveticaNeue-Light'" font-size="8.0002">122</text>
<text transform="matrix(0.85 0 0 1 164.4863 498.7822)" fill="#666666" font-family="'HelveticaNeue-Light'" font-size="8.0002">123</text>
<text transform="matrix(0.85 0 0 1 198.188 515.0303)" fill="#666666" font-family="'HelveticaNeue-Light'" font-size="8.0002">124</text>
<text transform="matrix(0.85 0 0 1 218.2739 517.4922)" fill="#666666" font-family="'HelveticaNeue-Light'" font-size="8.0002">125</text>
<text transform="matrix(0.85 0 0 1 250.2031 515.9453)" fill="#666666" font-family="'HelveticaNeue-Light'" font-size="8.0002">126</text>
<text transform="matrix(0.85 0 0 1 267.249 516.124)" fill="#666666" font-family="'HelveticaNeue-Light'" font-size="8.0002">127</text>
<text transform="matrix(0.85 0 0 1 292.3682 515.9277)" fill="#666666" font-family="'HelveticaNeue-Light'" font-size="8.0002">128</text>
<text transform="matrix(0.85 0 0 1 311.4023 515.9238)" fill="#666666" font-family="'HelveticaNeue-Light'" font-size="8.0002">101</text>
<text transform="matrix(0.85 0 0 1 343.8545 516.0312)" fill="#666666" font-family="'HelveticaNeue-Light'" font-size="8.0002">103</text>
<text transform="matrix(0.85 0 0 1 385.5469 516.8584)" fill="#666666" font-family="'HelveticaNeue-Light'" font-size="8.0002">104</text>
<text transform="matrix(0.85 0 0 1 404.8877 515.0303)" fill="#666666" font-family="'HelveticaNeue-Light'" font-size="8.0002">105</text>
<text transform="matrix(0.85 0 0 1 438.7236 498.4258)" fill="#666666" font-family="'HelveticaNeue-Light'" font-size="8.0002">106</text>
<text transform="matrix(0.85 0 0 1 456.6846 487.6387)" fill="#666666" font-family="'HelveticaNeue-Light'" font-size="8.0002">107</text>
<text transform="matrix(0.85 0 0 1 165.8823 285.4111)" fill="#666666" font-family="'HelveticaNeue-Light'" font-size="8.0002">120</text>
<text transform="matrix(0.85 0 0 1 61.3501 273.9111)" fill="#666666" font-family="'HelveticaNeue-Light'" font-size="8.0002">ADMIN</text>
<text transform="matrix(0.85 0 0 1 60.9658 280.9111)" fill="#666666" font-family="'HelveticaNeue-Light'" font-size="8.0002">LOBBY</text>
<text transform="matrix(0.85 0 0 1 26.4087 295.1611)" fill="#666666" font-family="'HelveticaNeue-Light'" font-size="8.0002">DOLLAR</text>
<text transform="matrix(0.85 0 0 1 32.835 302.1611)" fill="#666666" font-family="'HelveticaNeue-Light'" font-size="8.0002">CAR</text>
<text transform="matrix(0.85 0 0 1 26.853 309.1611)" fill="#666666" font-family="'HelveticaNeue-Light'" font-size="8.0002">REN</text>
<text transform="matrix(0.85 0 0 1 41.21 309.1611)" fill="#666666" font-family="'HelveticaNeue-Light'" font-size="8.0002">T</text>
<text transform="matrix(0.85 0 0 1 44.8599 309.1611)" fill="#666666" font-family="'HelveticaNeue-Light'" font-size="8.0002">AL</text>
<text transform="matrix(0.85 0 0 1 176.5542 197.6621)" fill="#666666" font-family="'HelveticaNeue-Light'" font-size="8.0002">1</text>
<text transform="matrix(0.85 0 0 1 179.8403 197.6621)" fill="#666666" font-family="'HelveticaNeue-Light'" font-size="8.0002">13C</text>
<text transform="matrix(0.85 0 0 1 159.9248 215.2627)" fill="#666666" font-family="'HelveticaNeue-Light'" font-size="6.0577"> </text>
<text transform="matrix(0.85 0 0 1 161.3545 215.2627)" fill="#666666" font-family="'HelveticaNeue-Light'" font-size="6.0577">1</text>
<text transform="matrix(0.85 0 0 1 163.8379 215.2627)" fill="#666666" font-family="'HelveticaNeue-Light'" font-size="6.0577">14A</text>
<text transform="matrix(0.85 0 0 1 97.6406 252.4863)" fill="#666666" font-family="'HelveticaNeue-Light'" font-size="8.0002">1</text>
<text transform="matrix(0.85 0 0 1 100.9194 252.4863)" fill="#666666" font-family="'HelveticaNeue-Light'" font-size="8.0002">14B</text>
<text transform="matrix(0.85 0 0 1 96.8975 296.6689)" fill="#666666" font-family="'HelveticaNeue-Light'" font-size="8.0002">1</text>
<text transform="matrix(0.85 0 0 1 100.1763 296.6689)" fill="#666666" font-family="'HelveticaNeue-Light'" font-size="8.0002">15B</text>
<text transform="matrix(0.85 0 0 1 29.4248 251.9971)" fill="#666666" font-family="'HelveticaNeue-Light'" font-size="8.0002">TICKET</text>
<text transform="matrix(0.85 0 0 1 29.0479 258.9971)" fill="#666666" font-family="'HelveticaNeue-Light'" font-size="8.0002">OFFICE</text>
<text transform="matrix(0.85 0 0 1 25.2163 323.8291)" fill="#666666" font-family="'HelveticaNeue-Light'" font-size="8.0002">TICKET</text>
<text transform="matrix(0.85 0 0 1 24.8394 330.8291)" fill="#666666" font-family="'HelveticaNeue-Light'" font-size="8.0002">OFFICE</text>
<text transform="matrix(0.85 0 0 1 142.6719 162.313)" fill="#666666" font-family="'HelveticaNeue-Light'" font-size="8.0002">S</text>
<text transform="matrix(0.85 0 0 1 147.208 162.313)" fill="#666666" font-family="'HelveticaNeue-Light'" font-size="8.0002">T</text>
<text transform="matrix(0.85 0 0 1 150.8579 162.313)" fill="#666666" font-family="'HelveticaNeue-Light'" font-size="8.0002">AIR 4</text>
<text transform="matrix(0.85 0 0 1 120.9702 215.9297)" fill="#666666" font-family="'HelveticaNeue-Light'" font-size="6.6644">ELEC</text>
<text transform="matrix(0.85 0 0 1 148.1001 296.6475)" fill="#666666" font-family="'HelveticaNeue-Light'" font-size="8.0002">121</text>
<text transform="matrix(0.85 0 0 1 68.2583 225.4102)" fill="#666666" font-family="'HelveticaNeue-Light'" font-size="8.0002">MCDONALDS</text>
<text transform="matrix(0.85 0 0 1 72.5205 193.3975)" fill="#666666" font-family="'HelveticaNeue-Light'" font-size="8.0002">CHIPOTLE</text>
<text transform="matrix(0.85 0 0 1 218.9307 268.8018)" fill="#666666" font-family="'HelveticaNeue-Light'" font-size="8.0002">1</text>
<text transform="matrix(0.85 0 0 1 222.2095 268.8018)" fill="#666666" font-family="'HelveticaNeue-Light'" font-size="8.0002">18</text>
<text transform="matrix(0.85 0 0 1 197.8853 271.4658)" fill="#666666" font-family="'HelveticaNeue-Light'" font-size="8.0002">1</text>
<text transform="matrix(0.85 0 0 1 201.1641 271.4658)" fill="#666666" font-family="'HelveticaNeue-Light'" font-size="8.0002">19</text>
<text transform="matrix(0.85 0 0 1 266.9683 268.8975)" fill="#666666" font-family="'HelveticaNeue-Light'" font-size="8.0002">1</text>
<text transform="matrix(0.85 0 0 1 270.2471 268.8975)" fill="#666666" font-family="'HelveticaNeue-Light'" font-size="8.0002">16</text>
<text transform="matrix(0.85 0 0 1 249.8623 268.3398)" fill="#666666" font-family="'HelveticaNeue-Light'" font-size="8.0002">1</text>
<text transform="matrix(0.85 0 0 1 253.1411 268.3398)" fill="#666666" font-family="'HelveticaNeue-Light'" font-size="8.0002">17</text>
<text transform="matrix(0.85 0 0 1 292.7324 269.084)" fill="#666666" font-family="'HelveticaNeue-Light'" font-size="8.0002">1</text>
<text transform="matrix(0.85 0 0 1 296.0186 269.084)" fill="#666666" font-family="'HelveticaNeue-Light'" font-size="8.0002">15</text>
<text transform="matrix(0.85 0 0 1 310.9531 269.1484)" fill="#666666" font-family="'HelveticaNeue-Light'" font-size="8.0002">1</text>
<text transform="matrix(0.85 0 0 1 314.2305 269.1484)" fill="#666666" font-family="'HelveticaNeue-Light'" font-size="8.0002">14</text>
<text transform="matrix(0.85 0 0 1 355.0029 268.6133)" fill="#666666" font-family="'HelveticaNeue-Light'" font-size="8.0002">1</text>
<text transform="matrix(0.85 0 0 1 358.2812 268.6133)" fill="#666666" font-family="'HelveticaNeue-Light'" font-size="8.0002">12</text>
<text transform="matrix(0.85 0 0 1 336.6523 268.5664)" fill="#666666" font-family="'HelveticaNeue-Light'" font-size="8.0002">1</text>
<text transform="matrix(0.85 0 0 1 339.9297 268.5664)" fill="#666666" font-family="'HelveticaNeue-Light'" font-size="8.0002">13</text>
<text transform="matrix(0.85 0 0 1 404.2822 271.2539)" fill="#666666" font-family="'HelveticaNeue-Light'" font-size="8.0002">1</text>
<text transform="matrix(0.85 0 0 1 407.5605 271.2539)" fill="#666666" font-family="'HelveticaNeue-Light'" font-size="8.0002">10</text>
<text transform="matrix(0.85 0 0 1 385.3721 268.8535)" fill="#666666" font-family="'HelveticaNeue-Light'" font-size="8.0002">1</text>
<text transform="matrix(0.85 0 0 1 388.6504 268.8535)" fill="#666666" font-family="'HelveticaNeue-Light'" font-size="8.0002">1</text>
<text transform="matrix(0.85 0 0 1 391.9355 268.8535)" fill="#666666" font-family="'HelveticaNeue-Light'" font-size="8.0002">1</text>
<text transform="matrix(0.85 0 0 1 454.749 295.6611)" fill="#666666" font-family="'HelveticaNeue-Light'" font-size="8.0002">108</text>
<text transform="matrix(0.85 0 0 1 438.1377 284.4131)" fill="#666666" font-family="'HelveticaNeue-Light'" font-size="8.0002">109</text>
<text transform="matrix(0.85 0 0 1 102.8472 372.2466)" fill="#666666" font-family="'HelveticaNeue-Light'" font-size="8.0002">1</text>
<text transform="matrix(0.85 0 0 1 106.126 372.2466)" fill="#666666" font-family="'HelveticaNeue-Light'" font-size="8.0002">16</text>
<text transform="matrix(0.85 0 0 1 499.9707 405.1982)" fill="#666666" font-family="'HelveticaNeue-Light'" font-size="8.0002">105</text>
<text transform="matrix(0.85 0 0 1 503.1885 413.1992)" fill="#666666" font-family="'HelveticaNeue-Light'" font-size="8.0002">C</text>
<text transform="matrix(0.85 0 0 1 499.9707 369.4048)" fill="#666666" font-family="'HelveticaNeue-Light'" font-size="8.0002">105</text>
<text transform="matrix(0.85 0 0 1 503.1885 377.4053)" fill="#666666" font-family="'HelveticaNeue-Light'" font-size="8.0002">C</text>
<text transform="matrix(1 0 0 1 111.9653 617.4443)" fill="#666666" font-family="'HelveticaNeue-Light'" font-size="8">VID</text>
<text transform="matrix(1 0 0 1 125.3013 617.4443)" fill="#666666" font-family="'HelveticaNeue-Light'" font-size="8">A</text>
<text transform="matrix(1 0 0 1 130.1973 617.4443)" fill="#666666" font-family="'HelveticaNeue-Light'" font-size="8"> FITNESS</text>
<text transform="matrix(1 0 0 1 287.4248 626.7295)" fill="#666666" font-family="'HelveticaNeue-Light'" font-size="8">F S</text>
<text transform="matrix(1 0 0 1 299.8696 626.7295)" fill="#666666" font-family="'HelveticaNeue-Light'" font-size="8">T</text>
<text transform="matrix(1 0 0 1 304.6128 626.7295)" fill="#666666" font-family="'HelveticaNeue-Light'" font-size="8"> LOBBY</text>
<text transform="matrix(1 0 0 1 412.3467 613.1035)" fill="#666666" font-family="'HelveticaNeue-Light'" font-size="8">BOX OFFICE</text>
<text transform="matrix(1 0 0 1 405.1904 596.8604)" fill="#666666" font-family="'HelveticaNeue-Light'" font-size="6.0635">102D</text>
<text transform="matrix(1 0 0 1 374.1143 587.1465)" fill="#666666" font-family="'HelveticaNeue-Light'" font-size="8">102B</text>
<text transform="matrix(1 0 0 1 408.875 577.8301)" fill="#666666" font-family="'HelveticaNeue-Light'" font-size="7.3824">102</text>
<text transform="matrix(1 0 0 1 412.3672 584.29)" fill="#666666" font-family="'HelveticaNeue-Light'" font-size="7.3824">C</text>
<text transform="matrix(1 0 0 1 450.2217 559.3145)" fill="#666666" font-family="'HelveticaNeue-Light'" font-size="8">S</text>
<text transform="matrix(1 0 0 1 455.5576 559.3145)" fill="#666666" font-family="'HelveticaNeue-Light'" font-size="8">T</text>
<text transform="matrix(1 0 0 1 459.8525 559.3145)" fill="#666666" font-family="'HelveticaNeue-Light'" font-size="8">AIR 6</text>
<text transform="matrix(1 0 0 1 487.7891 606.1035)" fill="#666666" font-family="'HelveticaNeue-Light'" font-size="8">THE GREENE</text>
<text transform="matrix(1 0 0 1 480.8223 613.1035)" fill="#666666" font-family="'HelveticaNeue-Light'" font-size="8">TU</text>
<text transform="matrix(1 0 0 1 491.4863 613.1035)" fill="#666666" font-family="'HelveticaNeue-Light'" font-size="8">R</text>
<text transform="matrix(1 0 0 1 497.1289 613.1035)" fill="#666666" font-family="'HelveticaNeue-Light'" font-size="8">TLE SPO</text>
<text transform="matrix(1 0 0 1 530.917 613.1035)" fill="#666666" font-family="'HelveticaNeue-Light'" font-size="8">R</text>
<text transform="matrix(1 0 0 1 536.5508 613.1035)" fill="#666666" font-family="'HelveticaNeue-Light'" font-size="8">TS</text>
<text transform="matrix(1 0 0 1 480.8936 620.1035)" fill="#666666" font-family="'HelveticaNeue-Light'" font-size="8">BAR</text>
<text transform="matrix(1 0 0 1 497.3428 620.1035)" fill="#666666" font-family="'HelveticaNeue-Light'" font-size="8"> </text>
<text transform="matrix(1 0 0 1 499.125 620.1035)" fill="#666666" font-family="'HelveticaNeue-Light'" font-size="8">AND GRILLE</text>
<text transform="matrix(1 0 0 1 480.8223 573.2197)" fill="#666666" font-family="'HelveticaNeue-Light'" font-size="6.5281">103</text>
<text transform="matrix(1 0 0 1 521.6094 534.5635)" fill="#666666" font-family="'HelveticaNeue-Light'" font-size="8">S</text>
<text transform="matrix(1 0 0 1 526.9453 534.5635)" fill="#666666" font-family="'HelveticaNeue-Light'" font-size="8">T</text>
<text transform="matrix(1 0 0 1 531.2402 534.5635)" fill="#666666" font-family="'HelveticaNeue-Light'" font-size="8">AIR 1</text>
<text transform="matrix(1 0 0 1 534.8125 507.5205)" fill="#666666" font-family="'HelveticaNeue-Light'" font-size="8">104D</text>
<text transform="matrix(1 0 0 1 567.8662 477.3525)" fill="#666666" font-family="'HelveticaNeue-Light'" font-size="8">104E</text>
<text transform="matrix(1 0 0 1 521.0986 219.7837)" fill="#666666" font-family="'HelveticaNeue-Light'" font-size="8">S</text>
<text transform="matrix(1 0 0 1 526.4346 219.7837)" fill="#666666" font-family="'HelveticaNeue-Light'" font-size="8">T</text>
<text transform="matrix(1 0 0 1 530.7295 219.7837)" fill="#666666" font-family="'HelveticaNeue-Light'" font-size="8">AIR 2</text>
<text transform="matrix(1 0 0 1 468.3682 212.5605)" fill="#666666" font-family="'HelveticaNeue-Light'" font-size="8">108</text>
<text transform="matrix(1 0 0 1 269.1445 193.1445)" fill="#666666" font-family="'HelveticaNeue-Light'" font-size="8">1</text>
<text transform="matrix(1 0 0 1 273.0015 193.1445)" fill="#666666" font-family="'HelveticaNeue-Light'" font-size="8">12</text>
<text transform="matrix(-1.251686e-05 -1 1 -1.251686e-05 436.8662 214.7402)" fill="#666666" font-family="'HelveticaNeue-Light'" font-size="8">109</text>
<text transform="matrix(1 0 0 1 435.6846 178.6025)" fill="#666666" font-family="'HelveticaNeue-Light'" font-size="8">S</text>
<text transform="matrix(1 0 0 1 441.0205 178.6025)" fill="#666666" font-family="'HelveticaNeue-Light'" font-size="8">T</text>
<text transform="matrix(1 0 0 1 445.3154 178.6025)" fill="#666666" font-family="'HelveticaNeue-Light'" font-size="8">AIR 3</text>
<text transform="matrix(1 0 0 1 331.6855 193.1875)" fill="#666666" font-family="'HelveticaNeue-Light'" font-size="8">1</text>
<text transform="matrix(1 0 0 1 335.543 193.1875)" fill="#666666" font-family="'HelveticaNeue-Light'" font-size="8">10</text>
<text transform="matrix(1 0 0 1 21.625 500.2295)" fill="#666666" font-family="'HelveticaNeue-Light'" font-size="8">DUNKIN</text>
<text transform="matrix(1 0 0 1 20.0698 507.2295)" fill="#666666" font-family="'HelveticaNeue-Light'" font-size="8">DONUTS</text>
<text transform="matrix(1 0 0 1 64.769 571.0176)" fill="#666666" font-family="'HelveticaNeue-Light'" font-size="8">S</text>
<text transform="matrix(1 0 0 1 70.105 571.0176)" fill="#666666" font-family="'HelveticaNeue-Light'" font-size="8">T</text>
<text transform="matrix(1 0 0 1 74.3999 571.0176)" fill="#666666" font-family="'HelveticaNeue-Light'" font-size="8">AIR 5</text>
<g>
	
		<text transform="matrix(-1.251686e-05 -1 1 -1.251686e-05 108.0771 590.6836)" fill="#666666" font-family="'HelveticaNeue-Light'" font-size="8">D</text>
	
		<text transform="matrix(-1.251686e-05 -1 1 -1.251686e-05 108.0762 595.1309)" fill="#666666" font-family="'HelveticaNeue-Light'" font-size="8">9</text>
	
		<text transform="matrix(-1.251686e-05 -1 1 -1.251686e-05 108.0762 599.5801)" fill="#666666" font-family="'HelveticaNeue-Light'" font-size="8">1</text>
	
		<text transform="matrix(-1.251686e-05 -1 1 -1.251686e-05 108.0771 603.4355)" fill="#666666" font-family="'HelveticaNeue-Light'" font-size="8">1</text>
</g>
<g>
	
		<text transform="matrix(-1.251686e-05 -1 1 -1.251686e-05 117.7031 590.6836)" fill="#666666" font-family="'HelveticaNeue-Light'" font-size="8">C</text>
	
		<text transform="matrix(-1.251686e-05 -1 1 -1.251686e-05 117.7031 595.1328)" fill="#666666" font-family="'HelveticaNeue-Light'" font-size="8">9</text>
	
		<text transform="matrix(-1.251686e-05 -1 1 -1.251686e-05 117.7041 599.5801)" fill="#666666" font-family="'HelveticaNeue-Light'" font-size="8">1</text>
	
		<text transform="matrix(-1.251686e-05 -1 1 -1.251686e-05 117.7041 603.4375)" fill="#666666" font-family="'HelveticaNeue-Light'" font-size="8">1</text>
</g>
<text transform="matrix(-6.123234e-17 -1 1 1.250000e-05 126.1582 603.2168)" fill="#666666" font-family="'HelveticaNeue-Light'" font-size="8">1</text>
<text transform="matrix(-6.123234e-17 -1 1 1.250000e-05 126.1582 599.3516)" fill="#666666" font-family="'HelveticaNeue-Light'" font-size="8">19B</text>
<text transform="matrix(1 0 0 1 533.1719 265.8931)" fill="#666666" font-family="'HelveticaNeue-Light'" font-size="8">107F</text>
<text transform="matrix(0.7935 -0.6088 0.6087 0.7934 460.2578 516.2578)" fill="#666666" font-family="'HelveticaNeue-Light'" font-size="7.5783">106C</text>
<text transform="matrix(1 0 0 1 341.5635 548.5645)" fill="#666666" font-family="'HelveticaNeue-Light'" font-size="8">103C</text>
<text transform="matrix(0.9889 -0.1487 0.1487 0.9889 397.9824 537.4893)" fill="#666666" font-family="'HelveticaNeue-Light'" font-size="7">10</text>
<text transform="matrix(0.9889 -0.1487 0.1487 0.9889 405.0049 536.4336)" fill="#666666" font-family="'HelveticaNeue-Light'" font-size="7">4</text>
<text transform="matrix(0.9889 -0.1487 0.1487 0.9889 408.4932 535.9092)" fill="#666666" font-family="'HelveticaNeue-Light'" font-size="7">C</text>
<text transform="matrix(1 0 0 1 253.8574 548.8945)" fill="#666666" font-family="'HelveticaNeue-Light'" font-size="8">126C</text>
<text transform="matrix(1 0 0 1 198.188 548.5654)" fill="#666666" font-family="'HelveticaNeue-Light'" font-size="8">125C</text>
<text transform="matrix(0.6721 -0.5204 0.6123 0.7907 143.6733 275.5767)" fill="#666666" font-family="'HelveticaNeue-Light'" font-size="7.0366">120C</text>
<text transform="matrix(0.85 0 0 1 203.0576 621.4658)" fill="#666666" font-family="'HelveticaNeue-Light'" font-size="8.0002">F</text>
<text transform="matrix(0.85 0 0 1 206.8374 621.4658)" fill="#666666" font-family="'HelveticaNeue-Light'" font-size="8.0002">ANGEAR</text>
<text transform="matrix(0.85 0 0 1 209.6699 628.4658)" fill="#666666" font-family="'HelveticaNeue-Light'" font-size="8.0002">SHOP</text>
<text transform="matrix(0.84 0.1301 -0.1531 0.9882 397.4307 245.3638)" fill="#666666" font-family="'HelveticaNeue-Light'" font-size="8">11</text>
<text transform="matrix(0.84 0.1301 -0.1531 0.9882 403.9121 246.3691)" fill="#666666" font-family="'HelveticaNeue-Light'" font-size="8">1C</text>
<text transform="matrix(0.85 0 0 1 465.165 271.4614)" fill="#666666" font-family="'HelveticaNeue-Light'" font-size="6.3265">108C</text>
<text transform="matrix(0.6729 0.5192 -0.6109 0.7917 139.8438 506.3896)" fill="#666666" font-family="'HelveticaNeue-Light'" font-size="8.0004">123C</text>
<text transform="matrix(0.7959 -0.6055 0.6055 0.7959 470.4639 308.731)" fill="#666666" font-family="'HelveticaNeue-Light'" font-size="6.0003">107</text>
<text transform="matrix(0.7959 -0.6055 0.6055 0.7959 478.4316 302.6694)" fill="#666666" font-family="'HelveticaNeue-Light'" font-size="6.0003">/</text>
<text transform="matrix(0.7959 -0.6055 0.6055 0.7959 479.7578 301.6606)" fill="#666666" font-family="'HelveticaNeue-Light'" font-size="6.0003">1</text>
<text transform="matrix(0.7959 -0.6055 0.6055 0.7959 482.416 299.6396)" fill="#666666" font-family="'HelveticaNeue-Light'" font-size="6.0003">08</text>
<text transform="matrix(0.3678 -0.9299 0.9299 0.3678 428.1689 276.6826)" fill="#666666" font-family="'HelveticaNeue-Light'" font-size="6">10</text>
<text transform="matrix(0.3678 -0.9299 0.9299 0.3678 430.623 270.4766)" fill="#666666" font-family="'HelveticaNeue-Light'" font-size="6">8/</text>
<text transform="matrix(0.3678 -0.9299 0.9299 0.3678 432.4639 265.8252)" fill="#666666" font-family="'HelveticaNeue-Light'" font-size="6">109</text>
<text transform="matrix(-6.123234e-17 -1 1 -6.123234e-17 377.7295 264.583)" fill="#666666" font-family="'HelveticaNeue-Light'" font-size="6">109/</text>
<text transform="matrix(-6.123234e-17 -1 1 -6.123234e-17 377.7295 252.9053)" fill="#666666" font-family="'HelveticaNeue-Light'" font-size="6">1</text>
<text transform="matrix(-6.123234e-17 -1 1 -6.123234e-17 377.7295 250.0068)" fill="#666666" font-family="'HelveticaNeue-Light'" font-size="6">10</text>
<text transform="matrix(-6.123234e-17 -1 1 -6.123234e-17 331.2207 260.3179)" fill="#666666" font-family="'HelveticaNeue-Light'" font-size="5.2326">1</text>
<text transform="matrix(-6.123234e-17 -1 1 -6.123234e-17 331.2207 257.7944)" fill="#666666" font-family="'HelveticaNeue-Light'" font-size="5.2326">10/</text>
<text transform="matrix(-6.123234e-17 -1 1 -6.123234e-17 331.2207 250.5229)" fill="#666666" font-family="'HelveticaNeue-Light'" font-size="5.2326">1</text>
<text transform="matrix(-6.123234e-17 -1 1 -6.123234e-17 331.2207 247.9937)" fill="#666666" font-family="'HelveticaNeue-Light'" font-size="5.2326">1</text>
<text transform="matrix(-6.123234e-17 -1 1 -6.123234e-17 331.2207 245.4722)" fill="#666666" font-family="'HelveticaNeue-Light'" font-size="5.2326">1</text>
<text transform="matrix(-6.123235e-17 -1 1 -6.123235e-17 376.7139 535.9141)" fill="#666666" font-family="'HelveticaNeue-Light'" font-size="4.2561">101/102</text>
<text transform="matrix(-6.123235e-17 -1 1 -6.123235e-17 331.3242 535.7852)" fill="#666666" font-family="'HelveticaNeue-Light'" font-size="4.7268">100/101</text>
<text transform="matrix(-6.123235e-17 -1 1 -6.123235e-17 287.6201 534.5635)" fill="#666666" font-family="'HelveticaNeue-Light'" font-size="4.4624">121/100</text>
<text transform="matrix(0.3954 0.9185 -0.9185 0.3954 422.1738 504.6523)" fill="#666666" font-family="'HelveticaNeue-Light'" font-size="5.0491">102</text>
<text transform="matrix(0.3954 0.9185 -0.9185 0.3954 425.5088 512.3887)" fill="#666666" font-family="'HelveticaNeue-Light'" font-size="5.0491">/1</text>
<text transform="matrix(0.3954 0.9185 -0.9185 0.3954 427.1738 516.2578)" fill="#666666" font-family="'HelveticaNeue-Light'" font-size="5.0491">03</text>
<text transform="matrix(0.7886 0.6149 -0.6149 0.7886 464.5977 470.084)" fill="#666666" font-family="'HelveticaNeue-Light'" font-size="6">103/</text>
<text transform="matrix(0.7886 0.6149 -0.6149 0.7886 473.8066 477.2637)" fill="#666666" font-family="'HelveticaNeue-Light'" font-size="6">1</text>
<text transform="matrix(0.7886 0.6149 -0.6149 0.7886 476.4395 479.3154)" fill="#666666" font-family="'HelveticaNeue-Light'" font-size="6">0</text>
<text transform="matrix(0.7886 0.6149 -0.6149 0.7886 479.0693 481.3672)" fill="#666666" font-family="'HelveticaNeue-Light'" font-size="6">4</text>
<text transform="matrix(0.9942 0.1079 -0.1079 0.9942 499.0537 427.2021)" fill="#666666" font-family="'HelveticaNeue-Light'" font-size="5.0107">1</text>
<text transform="matrix(0.9942 0.1079 -0.1079 0.9942 501.8242 427.502)" fill="#666666" font-family="'HelveticaNeue-Light'" font-size="5.0107">04/105</text>
<text transform="matrix(1 0.0038 -0.0038 1 490.2197 390.7124)" fill="#666666" font-family="'HelveticaNeue-Light'" font-size="4.827">10</text>
<text transform="matrix(1 0.0038 -0.0038 1 495.5879 390.7329)" fill="#666666" font-family="'HelveticaNeue-Light'" font-size="4.827">5/1</text>
<text transform="matrix(1 0.0038 -0.0038 1 502.2979 390.7583)" fill="#666666" font-family="'HelveticaNeue-Light'" font-size="4.827">06</text>
<text transform="matrix(0.9901 -0.1407 0.1407 0.9901 502.332 354.8091)" fill="#666666" font-family="'HelveticaNeue-Light'" font-size="5.1495">106</text>
<text transform="matrix(0.9901 -0.1407 0.1407 0.9901 510.8359 353.6006)" fill="#666666" font-family="'HelveticaNeue-Light'" font-size="5.1495">/</text>
<text transform="matrix(0.9901 -0.1407 0.1407 0.9901 512.252 353.3994)" fill="#666666" font-family="'HelveticaNeue-Light'" font-size="5.1495">10</text>
<text transform="matrix(0.9901 -0.1407 0.1407 0.9901 517.9248 352.5933)" fill="#666666" font-family="'HelveticaNeue-Light'" font-size="5.1495">7</text>
<text transform="matrix(1 0 0 1 103.6182 409.1699)" fill="#666666" font-family="'HelveticaNeue-Light'" font-size="8">1</text>
<text transform="matrix(1 0 0 1 107.4751 409.1699)" fill="#666666" font-family="'HelveticaNeue-Light'" font-size="8">17</text>
<text transform="matrix(1 0 0 1 27.498 459.6885)" fill="#666666" font-family="'HelveticaNeue-Light'" font-size="8">ELE</text>
<text transform="matrix(1 0 0 1 42.6191 459.6885)" fill="#666666" font-family="'HelveticaNeue-Light'" font-size="8">V</text>
<text transform="matrix(1 0 0 1 47.5151 459.6885)" fill="#666666" font-family="'HelveticaNeue-Light'" font-size="8">-</text>
<text transform="matrix(1 0 0 1 25.4268 466.6885)" fill="#666666" font-family="'HelveticaNeue-Light'" font-size="8">A</text>
<text transform="matrix(1 0 0 1 30.1709 466.6885)" fill="#666666" font-family="'HelveticaNeue-Light'" font-size="8">T</text>
<text transform="matrix(1 0 0 1 34.9136 466.6885)" fill="#666666" font-family="'HelveticaNeue-Light'" font-size="8">ORS</text>
<text transform="matrix(1 0 0 1 32.2437 473.6885)" fill="#666666" font-family="'HelveticaNeue-Light'" font-size="8">T</text>
<text transform="matrix(1 0 0 1 36.9868 473.6885)" fill="#666666" font-family="'HelveticaNeue-Light'" font-size="8">O </text>
<text transform="matrix(1 0 0 1 24.394 480.6885)" fill="#666666" font-family="'HelveticaNeue-Light'" font-size="8">METRO</text>
<text transform="matrix(1 0 0 1 331.6855 207.9385)" fill="#666666" font-family="'HelveticaNeue-Light'" font-size="8">1</text>
<text transform="matrix(1 0 0 1 335.543 207.9385)" fill="#666666" font-family="'HelveticaNeue-Light'" font-size="8">10</text>
<text transform="matrix(1 0 0 1 269.1445 208.2695)" fill="#666666" font-family="'HelveticaNeue-Light'" font-size="8">1</text>
<text transform="matrix(1 0 0 1 273.0015 208.2695)" fill="#666666" font-family="'HelveticaNeue-Light'" font-size="8">12</text>
<line fill="#FFFFFF" stroke="#666666" stroke-miterlimit="10" x1="566.437" y1="474.571" x2="552.835" y2="474.571"/>
<g>
	<g>
		<g>
			<g>
				<circle fill="#999999" cx="155.305" cy="188.498" r="5.571"/>
			</g>
		</g>
		<g>
			<g>
				<path fill="#FFFFFF" d="M154.844,194.423c-3.267-0.253-5.719-3.118-5.465-6.385c0.254-3.268,3.119-5.719,6.386-5.466
					c3.268,0.254,5.719,3.119,5.466,6.386C160.977,192.225,158.111,194.677,154.844,194.423z M155.707,183.313
					c-2.859-0.222-5.365,1.923-5.587,4.782c-0.223,2.859,1.923,5.366,4.782,5.587c2.858,0.222,5.364-1.923,5.587-4.782
					C160.711,186.042,158.565,183.535,155.707,183.313z"/>
			</g>
		</g>
	</g>
	<g>
		<g>
			<polygon fill="#FFFFFF" points="153.65,191.41 152.91,191.353 153.102,188.887 154.806,189.02 154.949,187.168 156.824,187.313 
				156.959,185.585 157.699,185.643 157.508,188.112 155.633,187.966 155.488,189.818 153.784,189.685 			"/>
		</g>
	</g>
</g>
<polygon fill="#9FC2FF" stroke="#396099" stroke-width="2" stroke-miterlimit="10" points="458.799,601.151 423.084,601.151 
	423.084,568.332 450.087,568.332 450.076,571.548 458.799,571.562 "/>
<g>
	<g>
		<g>
			<circle fill="#4E76BF" cx="439.964" cy="584.879" r="7.409"/>
		</g>
		<g>
			<path fill="#FFFFFF" d="M439.964,592.781c-4.357,0-7.902-3.546-7.902-7.902c0-4.358,3.545-7.903,7.902-7.903
				c4.358,0,7.903,3.545,7.903,7.903C447.867,589.235,444.322,592.781,439.964,592.781z M439.964,577.964
				c-3.813,0-6.915,3.102-6.915,6.915c0,3.812,3.102,6.915,6.915,6.915s6.915-3.104,6.915-6.915
				C446.879,581.065,443.777,577.964,439.964,577.964z"/>
		</g>
	</g>
	<g>
		<path fill="#FFFFFF" d="M441.157,589.69c0,0.097-0.079,0.178-0.178,0.178h-2.032c-0.096,0-0.178-0.081-0.178-0.178v-3.598
			c0-0.098,0.082-0.178,0.178-0.178h2.032c0.099,0,0.178,0.08,0.178,0.178V589.69z"/>
	</g>
	<g>
		<circle fill="#FFFFFF" cx="439.914" cy="581.206" r="1.691"/>
	</g>
	<g>
		<path fill="#FFFFFF" d="M442.188,587.717c0,0.099-0.08,0.178-0.178,0.178h-4.091c-0.098,0-0.178-0.079-0.178-0.178v-4.027
			c0-0.099,0.08-0.178,0.178-0.178h4.091c0.098,0,0.178,0.079,0.178,0.178V587.717z"/>
	</g>
</g>
<g>
	<g opacity="0.7">
		<polygon fill="#FFE4B8" points="479.127,571.422 479.163,561.031 450.362,560.986 450.329,571.377 		"/>
		<path fill="#A37B40" d="M450.076,571.548l0.035-10.732l29.304,0.046l-0.036,10.732L450.076,571.548z M450.614,561.157
			l-0.034,10.051l28.297,0.044l0.033-10.052L450.614,561.157z"/>
	</g>
	<g opacity="0.7">
		
			<rect x="446.695" y="565.678" transform="matrix(-0.0033 1 -1 -0.0033 1019.6241 116.2255)" fill="#FFE4B8" width="10.391" height="1.145"/>
		<path fill="#A37B40" d="M451.047,571.614l0.037-10.731l1.647,0.002l-0.036,10.732L451.047,571.614z M451.585,561.225l-0.033,10.05
			l0.642,0.001l0.033-10.05L451.585,561.225z"/>
	</g>
	<g opacity="0.7">
		
			<rect x="448.9" y="565.658" transform="matrix(-0.0034 1 -1 -0.0034 1021.8593 114.0532)" fill="#FFE4B8" width="10.391" height="1.145"/>
		<path fill="#A37B40" d="M453.254,571.595l0.035-10.731l1.648,0.003l-0.036,10.731L453.254,571.595z M453.791,561.205l-0.033,10.05
			l0.642,0.002l0.033-10.05L453.791,561.205z"/>
	</g>
	<g opacity="0.7">
		
			<rect x="451.101" y="565.638" transform="matrix(-0.0034 1 -1 -0.0034 1024.0479 111.8329)" fill="#FFE4B8" width="10.391" height="1.146"/>
		<path fill="#A37B40" d="M455.455,571.575l0.036-10.731l1.648,0.004l-0.036,10.73L455.455,571.575z M455.993,561.186l-0.034,10.05
			h0.642l0.034-10.049L455.993,561.186z"/>
	</g>
	<g opacity="0.7">
		
			<rect x="453.386" y="565.625" transform="matrix(-0.0033 1 -1 -0.0033 1026.2837 109.4803)" fill="#FFE4B8" width="10.391" height="1.145"/>
		<path fill="#A37B40" d="M457.739,571.562l0.035-10.731l1.649,0.003l-0.035,10.73L457.739,571.562z M458.277,561.171l-0.033,10.051
			h0.642l0.033-10.049L458.277,561.171z"/>
	</g>
	<g opacity="0.7">
		
			<rect x="455.839" y="565.707" transform="matrix(-0.0033 1 -1 -0.0033 1028.8274 107.1097)" fill="#FFE4B8" width="10.392" height="1.145"/>
		<path fill="#A37B40" d="M460.191,571.644l0.037-10.732l1.647,0.003l-0.035,10.732L460.191,571.644z M460.731,561.254l-0.035,10.05
			h0.642l0.034-10.049L460.731,561.254z"/>
	</g>
	<g opacity="0.7">
		<polygon fill="#FFE4B8" points="463.973,571.394 464.008,561.003 462.862,561.001 462.827,571.394 		"/>
		<path fill="#A37B40" d="M462.575,571.563l0.036-10.732l1.649,0.002l-0.037,10.732L462.575,571.563z M463.113,561.173l-0.034,10.05
			l0.643,0.001l0.034-10.05L463.113,561.173z"/>
	</g>
	<g opacity="0.7">
		
			<rect x="460.423" y="565.671" transform="matrix(-0.0034 1 -1 -0.0034 1033.4344 102.5445)" fill="#FFE4B8" width="10.391" height="1.146"/>
		<path fill="#A37B40" d="M464.775,571.608l0.037-10.731l1.648,0.003l-0.036,10.731L464.775,571.608z M465.314,561.219l-0.034,10.05
			l0.643,0.001l0.033-10.05L465.314,561.219z"/>
	</g>
</g>
<g>
	<g>
		<g>
			<g>
				<circle fill="#999999" cx="465.089" cy="565.749" r="4.208"/>
			</g>
		</g>
		<g>
			<g>
				<path fill="#FFFFFF" d="M464.991,570.235c-2.474-0.053-4.443-2.109-4.39-4.584s2.111-4.444,4.585-4.391
					c2.475,0.054,4.444,2.11,4.391,4.585S467.466,570.29,464.991,570.235z M465.175,561.822c-2.165-0.048-3.965,1.676-4.012,3.84
					c-0.048,2.166,1.676,3.966,3.842,4.013c2.164,0.048,3.964-1.676,4.011-3.841C469.063,563.669,467.339,561.868,465.175,561.822z"
					/>
			</g>
		</g>
	</g>
	<g>
		<g>
			<polygon fill="#FFFFFF" points="463.965,568.015 463.404,568.002 463.444,566.135 464.735,566.163 464.766,564.761 
				466.186,564.791 466.215,563.482 466.775,563.495 466.735,565.364 465.314,565.333 465.284,566.735 463.993,566.708 			"/>
		</g>
	</g>
</g>
<line fill="none" stroke="#333333" stroke-miterlimit="10" x1="104.522" y1="574.499" x2="104.522" y2="583.202"/>
<line fill="none" stroke="#333333" stroke-miterlimit="10" x1="114.532" y1="574.499" x2="114.532" y2="583.202"/>
<line fill="none" stroke="#333333" stroke-miterlimit="10" x1="122.54" y1="574.499" x2="122.54" y2="583.202"/>
</svg>
